<?xml version="1.0" encoding="utf-8" standalone="no"?>
<!DOCTYPE svg PUBLIC "-//W3C//DTD SVG 1.1//EN"
  "http://www.w3.org/Graphics/SVG/1.1/DTD/svg11.dtd">
<svg height="310.86825pt" version="1.1" viewBox="0 0 414.46375 310.86825" width="414.46375pt" xmlns="http://www.w3.org/2000/svg" xmlns:xlink="http://www.w3.org/1999/xlink">
 <metadata>
  <rdf:RDF xmlns:cc="http://creativecommons.org/ns#" xmlns:dc="http://purl.org/dc/elements/1.1/" xmlns:rdf="http://www.w3.org/1999/02/22-rdf-syntax-ns#">
   <cc:Work>
    <dc:type rdf:resource="http://purl.org/dc/dcmitype/StillImage"/>
    <dc:date>2021-07-11T01:24:57.085571</dc:date>
    <dc:format>image/svg+xml</dc:format>
    <dc:creator>
     <cc:Agent>
      <dc:title>Matplotlib v3.4.2, https://matplotlib.org/</dc:title>
     </cc:Agent>
    </dc:creator>
   </cc:Work>
  </rdf:RDF>
 </metadata>
 <defs>
  <style type="text/css">*{stroke-linecap:butt;stroke-linejoin:round;}</style>
 </defs>
 <g id="figure_1">
  <g id="patch_1">
   <path d="M 0 310.86825 
L 414.46375 310.86825 
L 414.46375 0 
L 0 0 
z
" style="fill:#ffffff;"/>
  </g>
  <g id="axes_1">
   <g id="patch_2">
    <path d="M 50.14375 273.312 
L 407.26375 273.312 
L 407.26375 7.2 
L 50.14375 7.2 
z
" style="fill:#ffffff;"/>
   </g>
   <g id="patch_3">
    <path clip-path="url(#p085ca806ed)" d="M 67.585513 273.312 
L 69.202736 273.312 
L 69.202736 272.122141 
L 67.585513 272.122141 
z
" style="fill:#1f77b4;"/>
   </g>
   <g id="patch_4">
    <path clip-path="url(#p085ca806ed)" d="M 69.202736 273.312 
L 70.81996 273.312 
L 70.81996 272.71707 
L 69.202736 272.71707 
z
" style="fill:#1f77b4;"/>
   </g>
   <g id="patch_5">
    <path clip-path="url(#p085ca806ed)" d="M 70.81996 273.312 
L 72.437184 273.312 
L 72.437184 269.742423 
L 70.81996 269.742423 
z
" style="fill:#1f77b4;"/>
   </g>
   <g id="patch_6">
    <path clip-path="url(#p085ca806ed)" d="M 72.437184 273.312 
L 74.054408 273.312 
L 74.054408 269.147493 
L 72.437184 269.147493 
z
" style="fill:#1f77b4;"/>
   </g>
   <g id="patch_7">
    <path clip-path="url(#p085ca806ed)" d="M 74.054408 273.312 
L 75.671631 273.312 
L 75.671631 265.577915 
L 74.054408 265.577915 
z
" style="fill:#1f77b4;"/>
   </g>
   <g id="patch_8">
    <path clip-path="url(#p085ca806ed)" d="M 75.671631 273.312 
L 77.288855 273.312 
L 77.288855 270.932282 
L 75.671631 270.932282 
z
" style="fill:#1f77b4;"/>
   </g>
   <g id="patch_9">
    <path clip-path="url(#p085ca806ed)" d="M 77.288855 273.312 
L 78.906079 273.312 
L 78.906079 263.198197 
L 77.288855 263.198197 
z
" style="fill:#1f77b4;"/>
   </g>
   <g id="patch_10">
    <path clip-path="url(#p085ca806ed)" d="M 78.906079 273.312 
L 80.523302 273.312 
L 80.523302 260.818479 
L 78.906079 260.818479 
z
" style="fill:#1f77b4;"/>
   </g>
   <g id="patch_11">
    <path clip-path="url(#p085ca806ed)" d="M 80.523302 273.312 
L 82.140526 273.312 
L 82.140526 264.982986 
L 80.523302 264.982986 
z
" style="fill:#1f77b4;"/>
   </g>
   <g id="patch_12">
    <path clip-path="url(#p085ca806ed)" d="M 82.140526 273.312 
L 83.75775 273.312 
L 83.75775 259.62862 
L 82.140526 259.62862 
z
" style="fill:#1f77b4;"/>
   </g>
   <g id="patch_13">
    <path clip-path="url(#p085ca806ed)" d="M 83.75775 273.312 
L 85.374973 273.312 
L 85.374973 263.198197 
L 83.75775 263.198197 
z
" style="fill:#1f77b4;"/>
   </g>
   <g id="patch_14">
    <path clip-path="url(#p085ca806ed)" d="M 85.374973 273.312 
L 86.992197 273.312 
L 86.992197 257.248901 
L 85.374973 257.248901 
z
" style="fill:#1f77b4;"/>
   </g>
   <g id="patch_15">
    <path clip-path="url(#p085ca806ed)" d="M 86.992197 273.312 
L 88.609421 273.312 
L 88.609421 259.03369 
L 86.992197 259.03369 
z
" style="fill:#1f77b4;"/>
   </g>
   <g id="patch_16">
    <path clip-path="url(#p085ca806ed)" d="M 88.609421 273.312 
L 90.226645 273.312 
L 90.226645 251.299606 
L 88.609421 251.299606 
z
" style="fill:#1f77b4;"/>
   </g>
   <g id="patch_17">
    <path clip-path="url(#p085ca806ed)" d="M 90.226645 273.312 
L 91.843868 273.312 
L 91.843868 261.413408 
L 90.226645 261.413408 
z
" style="fill:#1f77b4;"/>
   </g>
   <g id="patch_18">
    <path clip-path="url(#p085ca806ed)" d="M 91.843868 273.312 
L 93.461092 273.312 
L 93.461092 260.818479 
L 91.843868 260.818479 
z
" style="fill:#1f77b4;"/>
   </g>
   <g id="patch_19">
    <path clip-path="url(#p085ca806ed)" d="M 93.461092 273.312 
L 95.078316 273.312 
L 95.078316 255.464113 
L 93.461092 255.464113 
z
" style="fill:#1f77b4;"/>
   </g>
   <g id="patch_20">
    <path clip-path="url(#p085ca806ed)" d="M 95.078316 273.312 
L 96.695539 273.312 
L 96.695539 245.945239 
L 95.078316 245.945239 
z
" style="fill:#1f77b4;"/>
   </g>
   <g id="patch_21">
    <path clip-path="url(#p085ca806ed)" d="M 96.695539 273.312 
L 98.312763 273.312 
L 98.312763 244.75538 
L 96.695539 244.75538 
z
" style="fill:#1f77b4;"/>
   </g>
   <g id="patch_22">
    <path clip-path="url(#p085ca806ed)" d="M 98.312763 273.312 
L 99.929987 273.312 
L 99.929987 250.109746 
L 98.312763 250.109746 
z
" style="fill:#1f77b4;"/>
   </g>
   <g id="patch_23">
    <path clip-path="url(#p085ca806ed)" d="M 99.929987 273.312 
L 101.54721 273.312 
L 101.54721 240.590873 
L 99.929987 240.590873 
z
" style="fill:#1f77b4;"/>
   </g>
   <g id="patch_24">
    <path clip-path="url(#p085ca806ed)" d="M 101.54721 273.312 
L 103.164434 273.312 
L 103.164434 247.730028 
L 101.54721 247.730028 
z
" style="fill:#1f77b4;"/>
   </g>
   <g id="patch_25">
    <path clip-path="url(#p085ca806ed)" d="M 103.164434 273.312 
L 104.781658 273.312 
L 104.781658 247.135099 
L 103.164434 247.135099 
z
" style="fill:#1f77b4;"/>
   </g>
   <g id="patch_26">
    <path clip-path="url(#p085ca806ed)" d="M 104.781658 273.312 
L 106.398882 273.312 
L 106.398882 240.590873 
L 104.781658 240.590873 
z
" style="fill:#1f77b4;"/>
   </g>
   <g id="patch_27">
    <path clip-path="url(#p085ca806ed)" d="M 106.398882 273.312 
L 108.016105 273.312 
L 108.016105 254.869183 
L 106.398882 254.869183 
z
" style="fill:#1f77b4;"/>
   </g>
   <g id="patch_28">
    <path clip-path="url(#p085ca806ed)" d="M 108.016105 273.312 
L 109.633329 273.312 
L 109.633329 247.135099 
L 108.016105 247.135099 
z
" style="fill:#1f77b4;"/>
   </g>
   <g id="patch_29">
    <path clip-path="url(#p085ca806ed)" d="M 109.633329 273.312 
L 111.250553 273.312 
L 111.250553 251.894535 
L 109.633329 251.894535 
z
" style="fill:#1f77b4;"/>
   </g>
   <g id="patch_30">
    <path clip-path="url(#p085ca806ed)" d="M 111.250553 273.312 
L 112.867776 273.312 
L 112.867776 240.590873 
L 111.250553 240.590873 
z
" style="fill:#1f77b4;"/>
   </g>
   <g id="patch_31">
    <path clip-path="url(#p085ca806ed)" d="M 112.867776 273.312 
L 114.485 273.312 
L 114.485 248.919887 
L 112.867776 248.919887 
z
" style="fill:#1f77b4;"/>
   </g>
   <g id="patch_32">
    <path clip-path="url(#p085ca806ed)" d="M 114.485 273.312 
L 116.102224 273.312 
L 116.102224 229.882141 
L 114.485 229.882141 
z
" style="fill:#1f77b4;"/>
   </g>
   <g id="patch_33">
    <path clip-path="url(#p085ca806ed)" d="M 116.102224 273.312 
L 117.719447 273.312 
L 117.719447 233.451718 
L 116.102224 233.451718 
z
" style="fill:#1f77b4;"/>
   </g>
   <g id="patch_34">
    <path clip-path="url(#p085ca806ed)" d="M 117.719447 273.312 
L 119.336671 273.312 
L 119.336671 238.211155 
L 117.719447 238.211155 
z
" style="fill:#1f77b4;"/>
   </g>
   <g id="patch_35">
    <path clip-path="url(#p085ca806ed)" d="M 119.336671 273.312 
L 120.953895 273.312 
L 120.953895 235.831437 
L 119.336671 235.831437 
z
" style="fill:#1f77b4;"/>
   </g>
   <g id="patch_36">
    <path clip-path="url(#p085ca806ed)" d="M 120.953895 273.312 
L 122.571119 273.312 
L 122.571119 233.451718 
L 120.953895 233.451718 
z
" style="fill:#1f77b4;"/>
   </g>
   <g id="patch_37">
    <path clip-path="url(#p085ca806ed)" d="M 122.571119 273.312 
L 124.188342 273.312 
L 124.188342 234.046648 
L 122.571119 234.046648 
z
" style="fill:#1f77b4;"/>
   </g>
   <g id="patch_38">
    <path clip-path="url(#p085ca806ed)" d="M 124.188342 273.312 
L 125.805566 273.312 
L 125.805566 238.211155 
L 124.188342 238.211155 
z
" style="fill:#1f77b4;"/>
   </g>
   <g id="patch_39">
    <path clip-path="url(#p085ca806ed)" d="M 125.805566 273.312 
L 127.42279 273.312 
L 127.42279 225.717634 
L 125.805566 225.717634 
z
" style="fill:#1f77b4;"/>
   </g>
   <g id="patch_40">
    <path clip-path="url(#p085ca806ed)" d="M 127.42279 273.312 
L 129.040013 273.312 
L 129.040013 228.097352 
L 127.42279 228.097352 
z
" style="fill:#1f77b4;"/>
   </g>
   <g id="patch_41">
    <path clip-path="url(#p085ca806ed)" d="M 129.040013 273.312 
L 130.657237 273.312 
L 130.657237 220.363268 
L 129.040013 220.363268 
z
" style="fill:#1f77b4;"/>
   </g>
   <g id="patch_42">
    <path clip-path="url(#p085ca806ed)" d="M 130.657237 273.312 
L 132.274461 273.312 
L 132.274461 227.502423 
L 130.657237 227.502423 
z
" style="fill:#1f77b4;"/>
   </g>
   <g id="patch_43">
    <path clip-path="url(#p085ca806ed)" d="M 132.274461 273.312 
L 133.891684 273.312 
L 133.891684 228.097352 
L 132.274461 228.097352 
z
" style="fill:#1f77b4;"/>
   </g>
   <g id="patch_44">
    <path clip-path="url(#p085ca806ed)" d="M 133.891684 273.312 
L 135.508908 273.312 
L 135.508908 216.198761 
L 133.891684 216.198761 
z
" style="fill:#1f77b4;"/>
   </g>
   <g id="patch_45">
    <path clip-path="url(#p085ca806ed)" d="M 135.508908 273.312 
L 137.126132 273.312 
L 137.126132 218.578479 
L 135.508908 218.578479 
z
" style="fill:#1f77b4;"/>
   </g>
   <g id="patch_46">
    <path clip-path="url(#p085ca806ed)" d="M 137.126132 273.312 
L 138.743356 273.312 
L 138.743356 221.553127 
L 137.126132 221.553127 
z
" style="fill:#1f77b4;"/>
   </g>
   <g id="patch_47">
    <path clip-path="url(#p085ca806ed)" d="M 138.743356 273.312 
L 140.360579 273.312 
L 140.360579 210.249465 
L 138.743356 210.249465 
z
" style="fill:#1f77b4;"/>
   </g>
   <g id="patch_48">
    <path clip-path="url(#p085ca806ed)" d="M 140.360579 273.312 
L 141.977803 273.312 
L 141.977803 213.819042 
L 140.360579 213.819042 
z
" style="fill:#1f77b4;"/>
   </g>
   <g id="patch_49">
    <path clip-path="url(#p085ca806ed)" d="M 141.977803 273.312 
L 143.595027 273.312 
L 143.595027 226.907493 
L 141.977803 226.907493 
z
" style="fill:#1f77b4;"/>
   </g>
   <g id="patch_50">
    <path clip-path="url(#p085ca806ed)" d="M 143.595027 273.312 
L 145.21225 273.312 
L 145.21225 220.363268 
L 143.595027 220.363268 
z
" style="fill:#1f77b4;"/>
   </g>
   <g id="patch_51">
    <path clip-path="url(#p085ca806ed)" d="M 145.21225 273.312 
L 146.829474 273.312 
L 146.829474 217.38862 
L 145.21225 217.38862 
z
" style="fill:#1f77b4;"/>
   </g>
   <g id="patch_52">
    <path clip-path="url(#p085ca806ed)" d="M 146.829474 273.312 
L 148.446698 273.312 
L 148.446698 217.38862 
L 146.829474 217.38862 
z
" style="fill:#1f77b4;"/>
   </g>
   <g id="patch_53">
    <path clip-path="url(#p085ca806ed)" d="M 148.446698 273.312 
L 150.063921 273.312 
L 150.063921 212.034254 
L 148.446698 212.034254 
z
" style="fill:#1f77b4;"/>
   </g>
   <g id="patch_54">
    <path clip-path="url(#p085ca806ed)" d="M 150.063921 273.312 
L 151.681145 273.312 
L 151.681145 211.439324 
L 150.063921 211.439324 
z
" style="fill:#1f77b4;"/>
   </g>
   <g id="patch_55">
    <path clip-path="url(#p085ca806ed)" d="M 151.681145 273.312 
L 153.298369 273.312 
L 153.298369 208.464676 
L 151.681145 208.464676 
z
" style="fill:#1f77b4;"/>
   </g>
   <g id="patch_56">
    <path clip-path="url(#p085ca806ed)" d="M 153.298369 273.312 
L 154.915593 273.312 
L 154.915593 215.008901 
L 153.298369 215.008901 
z
" style="fill:#1f77b4;"/>
   </g>
   <g id="patch_57">
    <path clip-path="url(#p085ca806ed)" d="M 154.915593 273.312 
L 156.532816 273.312 
L 156.532816 203.11031 
L 154.915593 203.11031 
z
" style="fill:#1f77b4;"/>
   </g>
   <g id="patch_58">
    <path clip-path="url(#p085ca806ed)" d="M 156.532816 273.312 
L 158.15004 273.312 
L 158.15004 197.755944 
L 156.532816 197.755944 
z
" style="fill:#1f77b4;"/>
   </g>
   <g id="patch_59">
    <path clip-path="url(#p085ca806ed)" d="M 158.15004 273.312 
L 159.767264 273.312 
L 159.767264 201.920451 
L 158.15004 201.920451 
z
" style="fill:#1f77b4;"/>
   </g>
   <g id="patch_60">
    <path clip-path="url(#p085ca806ed)" d="M 159.767264 273.312 
L 161.384487 273.312 
L 161.384487 194.781296 
L 159.767264 194.781296 
z
" style="fill:#1f77b4;"/>
   </g>
   <g id="patch_61">
    <path clip-path="url(#p085ca806ed)" d="M 161.384487 273.312 
L 163.001711 273.312 
L 163.001711 217.983549 
L 161.384487 217.983549 
z
" style="fill:#1f77b4;"/>
   </g>
   <g id="patch_62">
    <path clip-path="url(#p085ca806ed)" d="M 163.001711 273.312 
L 164.618935 273.312 
L 164.618935 194.186366 
L 163.001711 194.186366 
z
" style="fill:#1f77b4;"/>
   </g>
   <g id="patch_63">
    <path clip-path="url(#p085ca806ed)" d="M 164.618935 273.312 
L 166.236158 273.312 
L 166.236158 200.730592 
L 164.618935 200.730592 
z
" style="fill:#1f77b4;"/>
   </g>
   <g id="patch_64">
    <path clip-path="url(#p085ca806ed)" d="M 166.236158 273.312 
L 167.853382 273.312 
L 167.853382 208.464676 
L 166.236158 208.464676 
z
" style="fill:#1f77b4;"/>
   </g>
   <g id="patch_65">
    <path clip-path="url(#p085ca806ed)" d="M 167.853382 273.312 
L 169.470606 273.312 
L 169.470606 201.325521 
L 167.853382 201.325521 
z
" style="fill:#1f77b4;"/>
   </g>
   <g id="patch_66">
    <path clip-path="url(#p085ca806ed)" d="M 169.470606 273.312 
L 171.08783 273.312 
L 171.08783 200.135662 
L 169.470606 200.135662 
z
" style="fill:#1f77b4;"/>
   </g>
   <g id="patch_67">
    <path clip-path="url(#p085ca806ed)" d="M 171.08783 273.312 
L 172.705053 273.312 
L 172.705053 207.274817 
L 171.08783 207.274817 
z
" style="fill:#1f77b4;"/>
   </g>
   <g id="patch_68">
    <path clip-path="url(#p085ca806ed)" d="M 172.705053 273.312 
L 174.322277 273.312 
L 174.322277 182.287775 
L 172.705053 182.287775 
z
" style="fill:#1f77b4;"/>
   </g>
   <g id="patch_69">
    <path clip-path="url(#p085ca806ed)" d="M 174.322277 273.312 
L 175.939501 273.312 
L 175.939501 187.047211 
L 174.322277 187.047211 
z
" style="fill:#1f77b4;"/>
   </g>
   <g id="patch_70">
    <path clip-path="url(#p085ca806ed)" d="M 175.939501 273.312 
L 177.556724 273.312 
L 177.556724 194.186366 
L 175.939501 194.186366 
z
" style="fill:#1f77b4;"/>
   </g>
   <g id="patch_71">
    <path clip-path="url(#p085ca806ed)" d="M 177.556724 273.312 
L 179.173948 273.312 
L 179.173948 206.679887 
L 177.556724 206.679887 
z
" style="fill:#1f77b4;"/>
   </g>
   <g id="patch_72">
    <path clip-path="url(#p085ca806ed)" d="M 179.173948 273.312 
L 180.791172 273.312 
L 180.791172 194.186366 
L 179.173948 194.186366 
z
" style="fill:#1f77b4;"/>
   </g>
   <g id="patch_73">
    <path clip-path="url(#p085ca806ed)" d="M 180.791172 273.312 
L 182.408395 273.312 
L 182.408395 195.376225 
L 180.791172 195.376225 
z
" style="fill:#1f77b4;"/>
   </g>
   <g id="patch_74">
    <path clip-path="url(#p085ca806ed)" d="M 182.408395 273.312 
L 184.025619 273.312 
L 184.025619 212.034254 
L 182.408395 212.034254 
z
" style="fill:#1f77b4;"/>
   </g>
   <g id="patch_75">
    <path clip-path="url(#p085ca806ed)" d="M 184.025619 273.312 
L 185.642843 273.312 
L 185.642843 185.857352 
L 184.025619 185.857352 
z
" style="fill:#1f77b4;"/>
   </g>
   <g id="patch_76">
    <path clip-path="url(#p085ca806ed)" d="M 185.642843 273.312 
L 187.260067 273.312 
L 187.260067 186.452282 
L 185.642843 186.452282 
z
" style="fill:#1f77b4;"/>
   </g>
   <g id="patch_77">
    <path clip-path="url(#p085ca806ed)" d="M 187.260067 273.312 
L 188.87729 273.312 
L 188.87729 190.021859 
L 187.260067 190.021859 
z
" style="fill:#1f77b4;"/>
   </g>
   <g id="patch_78">
    <path clip-path="url(#p085ca806ed)" d="M 188.87729 273.312 
L 190.494514 273.312 
L 190.494514 183.477634 
L 188.87729 183.477634 
z
" style="fill:#1f77b4;"/>
   </g>
   <g id="patch_79">
    <path clip-path="url(#p085ca806ed)" d="M 190.494514 273.312 
L 192.111738 273.312 
L 192.111738 180.502986 
L 190.494514 180.502986 
z
" style="fill:#1f77b4;"/>
   </g>
   <g id="patch_80">
    <path clip-path="url(#p085ca806ed)" d="M 192.111738 273.312 
L 193.728961 273.312 
L 193.728961 175.14862 
L 192.111738 175.14862 
z
" style="fill:#1f77b4;"/>
   </g>
   <g id="patch_81">
    <path clip-path="url(#p085ca806ed)" d="M 193.728961 273.312 
L 195.346185 273.312 
L 195.346185 171.579042 
L 193.728961 171.579042 
z
" style="fill:#1f77b4;"/>
   </g>
   <g id="patch_82">
    <path clip-path="url(#p085ca806ed)" d="M 195.346185 273.312 
L 196.963409 273.312 
L 196.963409 178.718197 
L 195.346185 178.718197 
z
" style="fill:#1f77b4;"/>
   </g>
   <g id="patch_83">
    <path clip-path="url(#p085ca806ed)" d="M 196.963409 273.312 
L 198.580633 273.312 
L 198.580633 170.984113 
L 196.963409 170.984113 
z
" style="fill:#1f77b4;"/>
   </g>
   <g id="patch_84">
    <path clip-path="url(#p085ca806ed)" d="M 198.580633 273.312 
L 200.197856 273.312 
L 200.197856 162.655099 
L 198.580633 162.655099 
z
" style="fill:#1f77b4;"/>
   </g>
   <g id="patch_85">
    <path clip-path="url(#p085ca806ed)" d="M 200.197856 273.312 
L 201.81508 273.312 
L 201.81508 188.832 
L 200.197856 188.832 
z
" style="fill:#1f77b4;"/>
   </g>
   <g id="patch_86">
    <path clip-path="url(#p085ca806ed)" d="M 201.81508 273.312 
L 203.432304 273.312 
L 203.432304 179.313127 
L 201.81508 179.313127 
z
" style="fill:#1f77b4;"/>
   </g>
   <g id="patch_87">
    <path clip-path="url(#p085ca806ed)" d="M 203.432304 273.312 
L 205.049527 273.312 
L 205.049527 172.768901 
L 203.432304 172.768901 
z
" style="fill:#1f77b4;"/>
   </g>
   <g id="patch_88">
    <path clip-path="url(#p085ca806ed)" d="M 205.049527 273.312 
L 206.666751 273.312 
L 206.666751 168.009465 
L 205.049527 168.009465 
z
" style="fill:#1f77b4;"/>
   </g>
   <g id="patch_89">
    <path clip-path="url(#p085ca806ed)" d="M 206.666751 273.312 
L 208.283975 273.312 
L 208.283975 160.87031 
L 206.666751 160.87031 
z
" style="fill:#1f77b4;"/>
   </g>
   <g id="patch_90">
    <path clip-path="url(#p085ca806ed)" d="M 208.283975 273.312 
L 209.901198 273.312 
L 209.901198 151.351437 
L 208.283975 151.351437 
z
" style="fill:#1f77b4;"/>
   </g>
   <g id="patch_91">
    <path clip-path="url(#p085ca806ed)" d="M 209.901198 273.312 
L 211.518422 273.312 
L 211.518422 150.756507 
L 209.901198 150.756507 
z
" style="fill:#1f77b4;"/>
   </g>
   <g id="patch_92">
    <path clip-path="url(#p085ca806ed)" d="M 211.518422 273.312 
L 213.135646 273.312 
L 213.135646 162.060169 
L 211.518422 162.060169 
z
" style="fill:#1f77b4;"/>
   </g>
   <g id="patch_93">
    <path clip-path="url(#p085ca806ed)" d="M 213.135646 273.312 
L 214.75287 273.312 
L 214.75287 175.14862 
L 213.135646 175.14862 
z
" style="fill:#1f77b4;"/>
   </g>
   <g id="patch_94">
    <path clip-path="url(#p085ca806ed)" d="M 214.75287 273.312 
L 216.370093 273.312 
L 216.370093 161.465239 
L 214.75287 161.465239 
z
" style="fill:#1f77b4;"/>
   </g>
   <g id="patch_95">
    <path clip-path="url(#p085ca806ed)" d="M 216.370093 273.312 
L 217.987317 273.312 
L 217.987317 165.034817 
L 216.370093 165.034817 
z
" style="fill:#1f77b4;"/>
   </g>
   <g id="patch_96">
    <path clip-path="url(#p085ca806ed)" d="M 217.987317 273.312 
L 219.604541 273.312 
L 219.604541 161.465239 
L 217.987317 161.465239 
z
" style="fill:#1f77b4;"/>
   </g>
   <g id="patch_97">
    <path clip-path="url(#p085ca806ed)" d="M 219.604541 273.312 
L 221.221764 273.312 
L 221.221764 172.768901 
L 219.604541 172.768901 
z
" style="fill:#1f77b4;"/>
   </g>
   <g id="patch_98">
    <path clip-path="url(#p085ca806ed)" d="M 221.221764 273.312 
L 222.838988 273.312 
L 222.838988 159.085521 
L 221.221764 159.085521 
z
" style="fill:#1f77b4;"/>
   </g>
   <g id="patch_99">
    <path clip-path="url(#p085ca806ed)" d="M 222.838988 273.312 
L 224.456212 273.312 
L 224.456212 174.55369 
L 222.838988 174.55369 
z
" style="fill:#1f77b4;"/>
   </g>
   <g id="patch_100">
    <path clip-path="url(#p085ca806ed)" d="M 224.456212 273.312 
L 226.073435 273.312 
L 226.073435 162.655099 
L 224.456212 162.655099 
z
" style="fill:#1f77b4;"/>
   </g>
   <g id="patch_101">
    <path clip-path="url(#p085ca806ed)" d="M 226.073435 273.312 
L 227.690659 273.312 
L 227.690659 162.655099 
L 226.073435 162.655099 
z
" style="fill:#1f77b4;"/>
   </g>
   <g id="patch_102">
    <path clip-path="url(#p085ca806ed)" d="M 227.690659 273.312 
L 229.307883 273.312 
L 229.307883 157.300732 
L 227.690659 157.300732 
z
" style="fill:#1f77b4;"/>
   </g>
   <g id="patch_103">
    <path clip-path="url(#p085ca806ed)" d="M 229.307883 273.312 
L 230.925107 273.312 
L 230.925107 146.592 
L 229.307883 146.592 
z
" style="fill:#1f77b4;"/>
   </g>
   <g id="patch_104">
    <path clip-path="url(#p085ca806ed)" d="M 230.925107 273.312 
L 232.54233 273.312 
L 232.54233 148.376789 
L 230.925107 148.376789 
z
" style="fill:#1f77b4;"/>
   </g>
   <g id="patch_105">
    <path clip-path="url(#p085ca806ed)" d="M 232.54233 273.312 
L 234.159554 273.312 
L 234.159554 156.705803 
L 232.54233 156.705803 
z
" style="fill:#1f77b4;"/>
   </g>
   <g id="patch_106">
    <path clip-path="url(#p085ca806ed)" d="M 234.159554 273.312 
L 235.776778 273.312 
L 235.776778 145.99707 
L 234.159554 145.99707 
z
" style="fill:#1f77b4;"/>
   </g>
   <g id="patch_107">
    <path clip-path="url(#p085ca806ed)" d="M 235.776778 273.312 
L 237.394001 273.312 
L 237.394001 153.136225 
L 235.776778 153.136225 
z
" style="fill:#1f77b4;"/>
   </g>
   <g id="patch_108">
    <path clip-path="url(#p085ca806ed)" d="M 237.394001 273.312 
L 239.011225 273.312 
L 239.011225 144.212282 
L 237.394001 144.212282 
z
" style="fill:#1f77b4;"/>
   </g>
   <g id="patch_109">
    <path clip-path="url(#p085ca806ed)" d="M 239.011225 273.312 
L 240.628449 273.312 
L 240.628449 149.566648 
L 239.011225 149.566648 
z
" style="fill:#1f77b4;"/>
   </g>
   <g id="patch_110">
    <path clip-path="url(#p085ca806ed)" d="M 240.628449 273.312 
L 242.245672 273.312 
L 242.245672 156.705803 
L 240.628449 156.705803 
z
" style="fill:#1f77b4;"/>
   </g>
   <g id="patch_111">
    <path clip-path="url(#p085ca806ed)" d="M 242.245672 273.312 
L 243.862896 273.312 
L 243.862896 145.402141 
L 242.245672 145.402141 
z
" style="fill:#1f77b4;"/>
   </g>
   <g id="patch_112">
    <path clip-path="url(#p085ca806ed)" d="M 243.862896 273.312 
L 245.48012 273.312 
L 245.48012 137.073127 
L 243.862896 137.073127 
z
" style="fill:#1f77b4;"/>
   </g>
   <g id="patch_113">
    <path clip-path="url(#p085ca806ed)" d="M 245.48012 273.312 
L 247.097344 273.312 
L 247.097344 124.579606 
L 245.48012 124.579606 
z
" style="fill:#1f77b4;"/>
   </g>
   <g id="patch_114">
    <path clip-path="url(#p085ca806ed)" d="M 247.097344 273.312 
L 248.714567 273.312 
L 248.714567 143.022423 
L 247.097344 143.022423 
z
" style="fill:#1f77b4;"/>
   </g>
   <g id="patch_115">
    <path clip-path="url(#p085ca806ed)" d="M 248.714567 273.312 
L 250.331791 273.312 
L 250.331791 141.237634 
L 248.714567 141.237634 
z
" style="fill:#1f77b4;"/>
   </g>
   <g id="patch_116">
    <path clip-path="url(#p085ca806ed)" d="M 250.331791 273.312 
L 251.949015 273.312 
L 251.949015 126.959324 
L 250.331791 126.959324 
z
" style="fill:#1f77b4;"/>
   </g>
   <g id="patch_117">
    <path clip-path="url(#p085ca806ed)" d="M 251.949015 273.312 
L 253.566238 273.312 
L 253.566238 142.427493 
L 251.949015 142.427493 
z
" style="fill:#1f77b4;"/>
   </g>
   <g id="patch_118">
    <path clip-path="url(#p085ca806ed)" d="M 253.566238 273.312 
L 255.183462 273.312 
L 255.183462 119.820169 
L 253.566238 119.820169 
z
" style="fill:#1f77b4;"/>
   </g>
   <g id="patch_119">
    <path clip-path="url(#p085ca806ed)" d="M 255.183462 273.312 
L 256.800686 273.312 
L 256.800686 135.288338 
L 255.183462 135.288338 
z
" style="fill:#1f77b4;"/>
   </g>
   <g id="patch_120">
    <path clip-path="url(#p085ca806ed)" d="M 256.800686 273.312 
L 258.417909 273.312 
L 258.417909 124.579606 
L 256.800686 124.579606 
z
" style="fill:#1f77b4;"/>
   </g>
   <g id="patch_121">
    <path clip-path="url(#p085ca806ed)" d="M 258.417909 273.312 
L 260.035133 273.312 
L 260.035133 140.047775 
L 258.417909 140.047775 
z
" style="fill:#1f77b4;"/>
   </g>
   <g id="patch_122">
    <path clip-path="url(#p085ca806ed)" d="M 260.035133 273.312 
L 261.652357 273.312 
L 261.652357 123.389746 
L 260.035133 123.389746 
z
" style="fill:#1f77b4;"/>
   </g>
   <g id="patch_123">
    <path clip-path="url(#p085ca806ed)" d="M 261.652357 273.312 
L 263.269581 273.312 
L 263.269581 130.528901 
L 261.652357 130.528901 
z
" style="fill:#1f77b4;"/>
   </g>
   <g id="patch_124">
    <path clip-path="url(#p085ca806ed)" d="M 263.269581 273.312 
L 264.886804 273.312 
L 264.886804 121.010028 
L 263.269581 121.010028 
z
" style="fill:#1f77b4;"/>
   </g>
   <g id="patch_125">
    <path clip-path="url(#p085ca806ed)" d="M 264.886804 273.312 
L 266.504028 273.312 
L 266.504028 143.022423 
L 264.886804 143.022423 
z
" style="fill:#1f77b4;"/>
   </g>
   <g id="patch_126">
    <path clip-path="url(#p085ca806ed)" d="M 266.504028 273.312 
L 268.121252 273.312 
L 268.121252 117.440451 
L 266.504028 117.440451 
z
" style="fill:#1f77b4;"/>
   </g>
   <g id="patch_127">
    <path clip-path="url(#p085ca806ed)" d="M 268.121252 273.312 
L 269.738475 273.312 
L 269.738475 134.098479 
L 268.121252 134.098479 
z
" style="fill:#1f77b4;"/>
   </g>
   <g id="patch_128">
    <path clip-path="url(#p085ca806ed)" d="M 269.738475 273.312 
L 271.355699 273.312 
L 271.355699 121.010028 
L 269.738475 121.010028 
z
" style="fill:#1f77b4;"/>
   </g>
   <g id="patch_129">
    <path clip-path="url(#p085ca806ed)" d="M 271.355699 273.312 
L 272.972923 273.312 
L 272.972923 129.933972 
L 271.355699 129.933972 
z
" style="fill:#1f77b4;"/>
   </g>
   <g id="patch_130">
    <path clip-path="url(#p085ca806ed)" d="M 272.972923 273.312 
L 274.590146 273.312 
L 274.590146 126.364394 
L 272.972923 126.364394 
z
" style="fill:#1f77b4;"/>
   </g>
   <g id="patch_131">
    <path clip-path="url(#p085ca806ed)" d="M 274.590146 273.312 
L 276.20737 273.312 
L 276.20737 113.870873 
L 274.590146 113.870873 
z
" style="fill:#1f77b4;"/>
   </g>
   <g id="patch_132">
    <path clip-path="url(#p085ca806ed)" d="M 276.20737 273.312 
L 277.824594 273.312 
L 277.824594 95.428056 
L 276.20737 95.428056 
z
" style="fill:#1f77b4;"/>
   </g>
   <g id="patch_133">
    <path clip-path="url(#p085ca806ed)" d="M 277.824594 273.312 
L 279.441818 273.312 
L 279.441818 119.225239 
L 277.824594 119.225239 
z
" style="fill:#1f77b4;"/>
   </g>
   <g id="patch_134">
    <path clip-path="url(#p085ca806ed)" d="M 279.441818 273.312 
L 281.059041 273.312 
L 281.059041 121.010028 
L 279.441818 121.010028 
z
" style="fill:#1f77b4;"/>
   </g>
   <g id="patch_135">
    <path clip-path="url(#p085ca806ed)" d="M 281.059041 273.312 
L 282.676265 273.312 
L 282.676265 107.921577 
L 281.059041 107.921577 
z
" style="fill:#1f77b4;"/>
   </g>
   <g id="patch_136">
    <path clip-path="url(#p085ca806ed)" d="M 282.676265 273.312 
L 284.293489 273.312 
L 284.293489 126.959324 
L 282.676265 126.959324 
z
" style="fill:#1f77b4;"/>
   </g>
   <g id="patch_137">
    <path clip-path="url(#p085ca806ed)" d="M 284.293489 273.312 
L 285.910712 273.312 
L 285.910712 113.870873 
L 284.293489 113.870873 
z
" style="fill:#1f77b4;"/>
   </g>
   <g id="patch_138">
    <path clip-path="url(#p085ca806ed)" d="M 285.910712 273.312 
L 287.527936 273.312 
L 287.527936 111.491155 
L 285.910712 111.491155 
z
" style="fill:#1f77b4;"/>
   </g>
   <g id="patch_139">
    <path clip-path="url(#p085ca806ed)" d="M 287.527936 273.312 
L 289.14516 273.312 
L 289.14516 126.364394 
L 287.527936 126.364394 
z
" style="fill:#1f77b4;"/>
   </g>
   <g id="patch_140">
    <path clip-path="url(#p085ca806ed)" d="M 289.14516 273.312 
L 290.762383 273.312 
L 290.762383 98.402704 
L 289.14516 98.402704 
z
" style="fill:#1f77b4;"/>
   </g>
   <g id="patch_141">
    <path clip-path="url(#p085ca806ed)" d="M 290.762383 273.312 
L 292.379607 273.312 
L 292.379607 111.491155 
L 290.762383 111.491155 
z
" style="fill:#1f77b4;"/>
   </g>
   <g id="patch_142">
    <path clip-path="url(#p085ca806ed)" d="M 292.379607 273.312 
L 293.996831 273.312 
L 293.996831 102.567211 
L 292.379607 102.567211 
z
" style="fill:#1f77b4;"/>
   </g>
   <g id="patch_143">
    <path clip-path="url(#p085ca806ed)" d="M 293.996831 273.312 
L 295.614055 273.312 
L 295.614055 99.592563 
L 293.996831 99.592563 
z
" style="fill:#1f77b4;"/>
   </g>
   <g id="patch_144">
    <path clip-path="url(#p085ca806ed)" d="M 295.614055 273.312 
L 297.231278 273.312 
L 297.231278 113.275944 
L 295.614055 113.275944 
z
" style="fill:#1f77b4;"/>
   </g>
   <g id="patch_145">
    <path clip-path="url(#p085ca806ed)" d="M 297.231278 273.312 
L 298.848502 273.312 
L 298.848502 108.516507 
L 297.231278 108.516507 
z
" style="fill:#1f77b4;"/>
   </g>
   <g id="patch_146">
    <path clip-path="url(#p085ca806ed)" d="M 298.848502 273.312 
L 300.465726 273.312 
L 300.465726 97.807775 
L 298.848502 97.807775 
z
" style="fill:#1f77b4;"/>
   </g>
   <g id="patch_147">
    <path clip-path="url(#p085ca806ed)" d="M 300.465726 273.312 
L 302.082949 273.312 
L 302.082949 106.731718 
L 300.465726 106.731718 
z
" style="fill:#1f77b4;"/>
   </g>
   <g id="patch_148">
    <path clip-path="url(#p085ca806ed)" d="M 302.082949 273.312 
L 303.700173 273.312 
L 303.700173 98.997634 
L 302.082949 98.997634 
z
" style="fill:#1f77b4;"/>
   </g>
   <g id="patch_149">
    <path clip-path="url(#p085ca806ed)" d="M 303.700173 273.312 
L 305.317397 273.312 
L 305.317397 112.086085 
L 303.700173 112.086085 
z
" style="fill:#1f77b4;"/>
   </g>
   <g id="patch_150">
    <path clip-path="url(#p085ca806ed)" d="M 305.317397 273.312 
L 306.93462 273.312 
L 306.93462 106.731718 
L 305.317397 106.731718 
z
" style="fill:#1f77b4;"/>
   </g>
   <g id="patch_151">
    <path clip-path="url(#p085ca806ed)" d="M 306.93462 273.312 
L 308.551844 273.312 
L 308.551844 118.63031 
L 306.93462 118.63031 
z
" style="fill:#1f77b4;"/>
   </g>
   <g id="patch_152">
    <path clip-path="url(#p085ca806ed)" d="M 308.551844 273.312 
L 310.169068 273.312 
L 310.169068 94.833127 
L 308.551844 94.833127 
z
" style="fill:#1f77b4;"/>
   </g>
   <g id="patch_153">
    <path clip-path="url(#p085ca806ed)" d="M 310.169068 273.312 
L 311.786292 273.312 
L 311.786292 98.997634 
L 310.169068 98.997634 
z
" style="fill:#1f77b4;"/>
   </g>
   <g id="patch_154">
    <path clip-path="url(#p085ca806ed)" d="M 311.786292 273.312 
L 313.403515 273.312 
L 313.403515 103.75707 
L 311.786292 103.75707 
z
" style="fill:#1f77b4;"/>
   </g>
   <g id="patch_155">
    <path clip-path="url(#p085ca806ed)" d="M 313.403515 273.312 
L 315.020739 273.312 
L 315.020739 88.288901 
L 313.403515 88.288901 
z
" style="fill:#1f77b4;"/>
   </g>
   <g id="patch_156">
    <path clip-path="url(#p085ca806ed)" d="M 315.020739 273.312 
L 316.637963 273.312 
L 316.637963 88.288901 
L 315.020739 88.288901 
z
" style="fill:#1f77b4;"/>
   </g>
   <g id="patch_157">
    <path clip-path="url(#p085ca806ed)" d="M 316.637963 273.312 
L 318.255186 273.312 
L 318.255186 72.820732 
L 316.637963 72.820732 
z
" style="fill:#1f77b4;"/>
   </g>
   <g id="patch_158">
    <path clip-path="url(#p085ca806ed)" d="M 318.255186 273.312 
L 319.87241 273.312 
L 319.87241 102.567211 
L 318.255186 102.567211 
z
" style="fill:#1f77b4;"/>
   </g>
   <g id="patch_159">
    <path clip-path="url(#p085ca806ed)" d="M 319.87241 273.312 
L 321.489634 273.312 
L 321.489634 80.554817 
L 319.87241 80.554817 
z
" style="fill:#1f77b4;"/>
   </g>
   <g id="patch_160">
    <path clip-path="url(#p085ca806ed)" d="M 321.489634 273.312 
L 323.106857 273.312 
L 323.106857 98.402704 
L 321.489634 98.402704 
z
" style="fill:#1f77b4;"/>
   </g>
   <g id="patch_161">
    <path clip-path="url(#p085ca806ed)" d="M 323.106857 273.312 
L 324.724081 273.312 
L 324.724081 79.959887 
L 323.106857 79.959887 
z
" style="fill:#1f77b4;"/>
   </g>
   <g id="patch_162">
    <path clip-path="url(#p085ca806ed)" d="M 324.724081 273.312 
L 326.341305 273.312 
L 326.341305 79.959887 
L 324.724081 79.959887 
z
" style="fill:#1f77b4;"/>
   </g>
   <g id="patch_163">
    <path clip-path="url(#p085ca806ed)" d="M 326.341305 273.312 
L 327.958529 273.312 
L 327.958529 84.719324 
L 326.341305 84.719324 
z
" style="fill:#1f77b4;"/>
   </g>
   <g id="patch_164">
    <path clip-path="url(#p085ca806ed)" d="M 327.958529 273.312 
L 329.575752 273.312 
L 329.575752 78.175099 
L 327.958529 78.175099 
z
" style="fill:#1f77b4;"/>
   </g>
   <g id="patch_165">
    <path clip-path="url(#p085ca806ed)" d="M 329.575752 273.312 
L 331.192976 273.312 
L 331.192976 79.959887 
L 329.575752 79.959887 
z
" style="fill:#1f77b4;"/>
   </g>
   <g id="patch_166">
    <path clip-path="url(#p085ca806ed)" d="M 331.192976 273.312 
L 332.8102 273.312 
L 332.8102 72.225803 
L 331.192976 72.225803 
z
" style="fill:#1f77b4;"/>
   </g>
   <g id="patch_167">
    <path clip-path="url(#p085ca806ed)" d="M 332.8102 273.312 
L 334.427423 273.312 
L 334.427423 76.985239 
L 332.8102 76.985239 
z
" style="fill:#1f77b4;"/>
   </g>
   <g id="patch_168">
    <path clip-path="url(#p085ca806ed)" d="M 334.427423 273.312 
L 336.044647 273.312 
L 336.044647 78.770028 
L 334.427423 78.770028 
z
" style="fill:#1f77b4;"/>
   </g>
   <g id="patch_169">
    <path clip-path="url(#p085ca806ed)" d="M 336.044647 273.312 
L 337.661871 273.312 
L 337.661871 83.529465 
L 336.044647 83.529465 
z
" style="fill:#1f77b4;"/>
   </g>
   <g id="patch_170">
    <path clip-path="url(#p085ca806ed)" d="M 337.661871 273.312 
L 339.279095 273.312 
L 339.279095 75.200451 
L 337.661871 75.200451 
z
" style="fill:#1f77b4;"/>
   </g>
   <g id="patch_171">
    <path clip-path="url(#p085ca806ed)" d="M 339.279095 273.312 
L 340.896318 273.312 
L 340.896318 65.086648 
L 339.279095 65.086648 
z
" style="fill:#1f77b4;"/>
   </g>
   <g id="patch_172">
    <path clip-path="url(#p085ca806ed)" d="M 340.896318 273.312 
L 342.513542 273.312 
L 342.513542 68.061296 
L 340.896318 68.061296 
z
" style="fill:#1f77b4;"/>
   </g>
   <g id="patch_173">
    <path clip-path="url(#p085ca806ed)" d="M 342.513542 273.312 
L 344.130766 273.312 
L 344.130766 87.693972 
L 342.513542 87.693972 
z
" style="fill:#1f77b4;"/>
   </g>
   <g id="patch_174">
    <path clip-path="url(#p085ca806ed)" d="M 344.130766 273.312 
L 345.747989 273.312 
L 345.747989 67.466366 
L 344.130766 67.466366 
z
" style="fill:#1f77b4;"/>
   </g>
   <g id="patch_175">
    <path clip-path="url(#p085ca806ed)" d="M 345.747989 273.312 
L 347.365213 273.312 
L 347.365213 54.377915 
L 345.747989 54.377915 
z
" style="fill:#1f77b4;"/>
   </g>
   <g id="patch_176">
    <path clip-path="url(#p085ca806ed)" d="M 347.365213 273.312 
L 348.982437 273.312 
L 348.982437 70.441014 
L 347.365213 70.441014 
z
" style="fill:#1f77b4;"/>
   </g>
   <g id="patch_177">
    <path clip-path="url(#p085ca806ed)" d="M 348.982437 273.312 
L 350.59966 273.312 
L 350.59966 71.630873 
L 348.982437 71.630873 
z
" style="fill:#1f77b4;"/>
   </g>
   <g id="patch_178">
    <path clip-path="url(#p085ca806ed)" d="M 350.59966 273.312 
L 352.216884 273.312 
L 352.216884 68.656225 
L 350.59966 68.656225 
z
" style="fill:#1f77b4;"/>
   </g>
   <g id="patch_179">
    <path clip-path="url(#p085ca806ed)" d="M 352.216884 273.312 
L 353.834108 273.312 
L 353.834108 65.086648 
L 352.216884 65.086648 
z
" style="fill:#1f77b4;"/>
   </g>
   <g id="patch_180">
    <path clip-path="url(#p085ca806ed)" d="M 353.834108 273.312 
L 355.451332 273.312 
L 355.451332 42.479324 
L 353.834108 42.479324 
z
" style="fill:#1f77b4;"/>
   </g>
   <g id="patch_181">
    <path clip-path="url(#p085ca806ed)" d="M 355.451332 273.312 
L 357.068555 273.312 
L 357.068555 56.757634 
L 355.451332 56.757634 
z
" style="fill:#1f77b4;"/>
   </g>
   <g id="patch_182">
    <path clip-path="url(#p085ca806ed)" d="M 357.068555 273.312 
L 358.685779 273.312 
L 358.685779 46.643831 
L 357.068555 46.643831 
z
" style="fill:#1f77b4;"/>
   </g>
   <g id="patch_183">
    <path clip-path="url(#p085ca806ed)" d="M 358.685779 273.312 
L 360.303003 273.312 
L 360.303003 81.744676 
L 358.685779 81.744676 
z
" style="fill:#1f77b4;"/>
   </g>
   <g id="patch_184">
    <path clip-path="url(#p085ca806ed)" d="M 360.303003 273.312 
L 361.920226 273.312 
L 361.920226 60.922141 
L 360.303003 60.922141 
z
" style="fill:#1f77b4;"/>
   </g>
   <g id="patch_185">
    <path clip-path="url(#p085ca806ed)" d="M 361.920226 273.312 
L 363.53745 273.312 
L 363.53745 57.352563 
L 361.920226 57.352563 
z
" style="fill:#1f77b4;"/>
   </g>
   <g id="patch_186">
    <path clip-path="url(#p085ca806ed)" d="M 363.53745 273.312 
L 365.154674 273.312 
L 365.154674 64.491718 
L 363.53745 64.491718 
z
" style="fill:#1f77b4;"/>
   </g>
   <g id="patch_187">
    <path clip-path="url(#p085ca806ed)" d="M 365.154674 273.312 
L 366.771897 273.312 
L 366.771897 35.935099 
L 365.154674 35.935099 
z
" style="fill:#1f77b4;"/>
   </g>
   <g id="patch_188">
    <path clip-path="url(#p085ca806ed)" d="M 366.771897 273.312 
L 368.389121 273.312 
L 368.389121 54.972845 
L 366.771897 54.972845 
z
" style="fill:#1f77b4;"/>
   </g>
   <g id="patch_189">
    <path clip-path="url(#p085ca806ed)" d="M 368.389121 273.312 
L 370.006345 273.312 
L 370.006345 57.947493 
L 368.389121 57.947493 
z
" style="fill:#1f77b4;"/>
   </g>
   <g id="patch_190">
    <path clip-path="url(#p085ca806ed)" d="M 370.006345 273.312 
L 371.623569 273.312 
L 371.623569 70.441014 
L 370.006345 70.441014 
z
" style="fill:#1f77b4;"/>
   </g>
   <g id="patch_191">
    <path clip-path="url(#p085ca806ed)" d="M 371.623569 273.312 
L 373.240792 273.312 
L 373.240792 40.694535 
L 371.623569 40.694535 
z
" style="fill:#1f77b4;"/>
   </g>
   <g id="patch_192">
    <path clip-path="url(#p085ca806ed)" d="M 373.240792 273.312 
L 374.858016 273.312 
L 374.858016 28.201014 
L 373.240792 28.201014 
z
" style="fill:#1f77b4;"/>
   </g>
   <g id="patch_193">
    <path clip-path="url(#p085ca806ed)" d="M 374.858016 273.312 
L 376.47524 273.312 
L 376.47524 69.251155 
L 374.858016 69.251155 
z
" style="fill:#1f77b4;"/>
   </g>
   <g id="patch_194">
    <path clip-path="url(#p085ca806ed)" d="M 376.47524 273.312 
L 378.092463 273.312 
L 378.092463 53.782986 
L 376.47524 53.782986 
z
" style="fill:#1f77b4;"/>
   </g>
   <g id="patch_195">
    <path clip-path="url(#p085ca806ed)" d="M 378.092463 273.312 
L 379.709687 273.312 
L 379.709687 34.745239 
L 378.092463 34.745239 
z
" style="fill:#1f77b4;"/>
   </g>
   <g id="patch_196">
    <path clip-path="url(#p085ca806ed)" d="M 379.709687 273.312 
L 381.326911 273.312 
L 381.326911 19.872 
L 379.709687 19.872 
z
" style="fill:#1f77b4;"/>
   </g>
   <g id="patch_197">
    <path clip-path="url(#p085ca806ed)" d="M 381.326911 273.312 
L 382.944134 273.312 
L 382.944134 50.808338 
L 381.326911 50.808338 
z
" style="fill:#1f77b4;"/>
   </g>
   <g id="patch_198">
    <path clip-path="url(#p085ca806ed)" d="M 382.944134 273.312 
L 384.561358 273.312 
L 384.561358 38.909746 
L 382.944134 38.909746 
z
" style="fill:#1f77b4;"/>
   </g>
   <g id="patch_199">
    <path clip-path="url(#p085ca806ed)" d="M 384.561358 273.312 
L 386.178582 273.312 
L 386.178582 22.251718 
L 384.561358 22.251718 
z
" style="fill:#1f77b4;"/>
   </g>
   <g id="patch_200">
    <path clip-path="url(#p085ca806ed)" d="M 386.178582 273.312 
L 387.795806 273.312 
L 387.795806 51.998197 
L 386.178582 51.998197 
z
" style="fill:#1f77b4;"/>
   </g>
   <g id="patch_201">
    <path clip-path="url(#p085ca806ed)" d="M 387.795806 273.312 
L 389.413029 273.312 
L 389.413029 25.226366 
L 387.795806 25.226366 
z
" style="fill:#1f77b4;"/>
   </g>
   <g id="patch_202">
    <path clip-path="url(#p085ca806ed)" d="M 389.413029 273.312 
L 391.030253 273.312 
L 391.030253 32.960451 
L 389.413029 32.960451 
z
" style="fill:#1f77b4;"/>
   </g>
   <g id="matplotlib.axis_1">
    <g id="xtick_1">
     <g id="line2d_1">
      <defs>
       <path d="M 0 0 
L 0 3.5 
" id="md97b65c178" style="stroke:#000000;stroke-width:0.8;"/>
      </defs>
      <g>
       <use style="stroke:#000000;stroke-width:0.8;" x="66.376477" xlink:href="#md97b65c178" y="273.312"/>
      </g>
     </g>
     <g id="text_1">
      <!-- 0.0 -->
      <g transform="translate(58.424915 287.910437)scale(0.1 -0.1)">
       <defs>
        <path d="M 2034 4250 
Q 1547 4250 1301 3770 
Q 1056 3291 1056 2328 
Q 1056 1369 1301 889 
Q 1547 409 2034 409 
Q 2525 409 2770 889 
Q 3016 1369 3016 2328 
Q 3016 3291 2770 3770 
Q 2525 4250 2034 4250 
z
M 2034 4750 
Q 2819 4750 3233 4129 
Q 3647 3509 3647 2328 
Q 3647 1150 3233 529 
Q 2819 -91 2034 -91 
Q 1250 -91 836 529 
Q 422 1150 422 2328 
Q 422 3509 836 4129 
Q 1250 4750 2034 4750 
z
" id="DejaVuSans-30" transform="scale(0.015625)"/>
        <path d="M 684 794 
L 1344 794 
L 1344 0 
L 684 0 
L 684 794 
z
" id="DejaVuSans-2e" transform="scale(0.015625)"/>
       </defs>
       <use xlink:href="#DejaVuSans-30"/>
       <use x="63.623047" xlink:href="#DejaVuSans-2e"/>
       <use x="95.410156" xlink:href="#DejaVuSans-30"/>
      </g>
     </g>
    </g>
    <g id="xtick_2">
     <g id="line2d_2">
      <g>
       <use style="stroke:#000000;stroke-width:0.8;" x="131.307386" xlink:href="#md97b65c178" y="273.312"/>
      </g>
     </g>
     <g id="text_2">
      <!-- 0.2 -->
      <g transform="translate(123.355824 287.910437)scale(0.1 -0.1)">
       <defs>
        <path d="M 1228 531 
L 3431 531 
L 3431 0 
L 469 0 
L 469 531 
Q 828 903 1448 1529 
Q 2069 2156 2228 2338 
Q 2531 2678 2651 2914 
Q 2772 3150 2772 3378 
Q 2772 3750 2511 3984 
Q 2250 4219 1831 4219 
Q 1534 4219 1204 4116 
Q 875 4013 500 3803 
L 500 4441 
Q 881 4594 1212 4672 
Q 1544 4750 1819 4750 
Q 2544 4750 2975 4387 
Q 3406 4025 3406 3419 
Q 3406 3131 3298 2873 
Q 3191 2616 2906 2266 
Q 2828 2175 2409 1742 
Q 1991 1309 1228 531 
z
" id="DejaVuSans-32" transform="scale(0.015625)"/>
       </defs>
       <use xlink:href="#DejaVuSans-30"/>
       <use x="63.623047" xlink:href="#DejaVuSans-2e"/>
       <use x="95.410156" xlink:href="#DejaVuSans-32"/>
      </g>
     </g>
    </g>
    <g id="xtick_3">
     <g id="line2d_3">
      <g>
       <use style="stroke:#000000;stroke-width:0.8;" x="196.238295" xlink:href="#md97b65c178" y="273.312"/>
      </g>
     </g>
     <g id="text_3">
      <!-- 0.4 -->
      <g transform="translate(188.286733 287.910437)scale(0.1 -0.1)">
       <defs>
        <path d="M 2419 4116 
L 825 1625 
L 2419 1625 
L 2419 4116 
z
M 2253 4666 
L 3047 4666 
L 3047 1625 
L 3713 1625 
L 3713 1100 
L 3047 1100 
L 3047 0 
L 2419 0 
L 2419 1100 
L 313 1100 
L 313 1709 
L 2253 4666 
z
" id="DejaVuSans-34" transform="scale(0.015625)"/>
       </defs>
       <use xlink:href="#DejaVuSans-30"/>
       <use x="63.623047" xlink:href="#DejaVuSans-2e"/>
       <use x="95.410156" xlink:href="#DejaVuSans-34"/>
      </g>
     </g>
    </g>
    <g id="xtick_4">
     <g id="line2d_4">
      <g>
       <use style="stroke:#000000;stroke-width:0.8;" x="261.169205" xlink:href="#md97b65c178" y="273.312"/>
      </g>
     </g>
     <g id="text_4">
      <!-- 0.6 -->
      <g transform="translate(253.217642 287.910437)scale(0.1 -0.1)">
       <defs>
        <path d="M 2113 2584 
Q 1688 2584 1439 2293 
Q 1191 2003 1191 1497 
Q 1191 994 1439 701 
Q 1688 409 2113 409 
Q 2538 409 2786 701 
Q 3034 994 3034 1497 
Q 3034 2003 2786 2293 
Q 2538 2584 2113 2584 
z
M 3366 4563 
L 3366 3988 
Q 3128 4100 2886 4159 
Q 2644 4219 2406 4219 
Q 1781 4219 1451 3797 
Q 1122 3375 1075 2522 
Q 1259 2794 1537 2939 
Q 1816 3084 2150 3084 
Q 2853 3084 3261 2657 
Q 3669 2231 3669 1497 
Q 3669 778 3244 343 
Q 2819 -91 2113 -91 
Q 1303 -91 875 529 
Q 447 1150 447 2328 
Q 447 3434 972 4092 
Q 1497 4750 2381 4750 
Q 2619 4750 2861 4703 
Q 3103 4656 3366 4563 
z
" id="DejaVuSans-36" transform="scale(0.015625)"/>
       </defs>
       <use xlink:href="#DejaVuSans-30"/>
       <use x="63.623047" xlink:href="#DejaVuSans-2e"/>
       <use x="95.410156" xlink:href="#DejaVuSans-36"/>
      </g>
     </g>
    </g>
    <g id="xtick_5">
     <g id="line2d_5">
      <g>
       <use style="stroke:#000000;stroke-width:0.8;" x="326.100114" xlink:href="#md97b65c178" y="273.312"/>
      </g>
     </g>
     <g id="text_5">
      <!-- 0.8 -->
      <g transform="translate(318.148551 287.910437)scale(0.1 -0.1)">
       <defs>
        <path d="M 2034 2216 
Q 1584 2216 1326 1975 
Q 1069 1734 1069 1313 
Q 1069 891 1326 650 
Q 1584 409 2034 409 
Q 2484 409 2743 651 
Q 3003 894 3003 1313 
Q 3003 1734 2745 1975 
Q 2488 2216 2034 2216 
z
M 1403 2484 
Q 997 2584 770 2862 
Q 544 3141 544 3541 
Q 544 4100 942 4425 
Q 1341 4750 2034 4750 
Q 2731 4750 3128 4425 
Q 3525 4100 3525 3541 
Q 3525 3141 3298 2862 
Q 3072 2584 2669 2484 
Q 3125 2378 3379 2068 
Q 3634 1759 3634 1313 
Q 3634 634 3220 271 
Q 2806 -91 2034 -91 
Q 1263 -91 848 271 
Q 434 634 434 1313 
Q 434 1759 690 2068 
Q 947 2378 1403 2484 
z
M 1172 3481 
Q 1172 3119 1398 2916 
Q 1625 2713 2034 2713 
Q 2441 2713 2670 2916 
Q 2900 3119 2900 3481 
Q 2900 3844 2670 4047 
Q 2441 4250 2034 4250 
Q 1625 4250 1398 4047 
Q 1172 3844 1172 3481 
z
" id="DejaVuSans-38" transform="scale(0.015625)"/>
       </defs>
       <use xlink:href="#DejaVuSans-30"/>
       <use x="63.623047" xlink:href="#DejaVuSans-2e"/>
       <use x="95.410156" xlink:href="#DejaVuSans-38"/>
      </g>
     </g>
    </g>
    <g id="xtick_6">
     <g id="line2d_6">
      <g>
       <use style="stroke:#000000;stroke-width:0.8;" x="391.031023" xlink:href="#md97b65c178" y="273.312"/>
      </g>
     </g>
     <g id="text_6">
      <!-- 1.0 -->
      <g transform="translate(383.07946 287.910437)scale(0.1 -0.1)">
       <defs>
        <path d="M 794 531 
L 1825 531 
L 1825 4091 
L 703 3866 
L 703 4441 
L 1819 4666 
L 2450 4666 
L 2450 531 
L 3481 531 
L 3481 0 
L 794 0 
L 794 531 
z
" id="DejaVuSans-31" transform="scale(0.015625)"/>
       </defs>
       <use xlink:href="#DejaVuSans-31"/>
       <use x="63.623047" xlink:href="#DejaVuSans-2e"/>
       <use x="95.410156" xlink:href="#DejaVuSans-30"/>
      </g>
     </g>
    </g>
    <g id="text_7">
     <!-- Propagation direction -->
     <g transform="translate(175.221719 301.588562)scale(0.1 -0.1)">
      <defs>
       <path d="M 1259 4147 
L 1259 2394 
L 2053 2394 
Q 2494 2394 2734 2622 
Q 2975 2850 2975 3272 
Q 2975 3691 2734 3919 
Q 2494 4147 2053 4147 
L 1259 4147 
z
M 628 4666 
L 2053 4666 
Q 2838 4666 3239 4311 
Q 3641 3956 3641 3272 
Q 3641 2581 3239 2228 
Q 2838 1875 2053 1875 
L 1259 1875 
L 1259 0 
L 628 0 
L 628 4666 
z
" id="DejaVuSans-50" transform="scale(0.015625)"/>
       <path d="M 2631 2963 
Q 2534 3019 2420 3045 
Q 2306 3072 2169 3072 
Q 1681 3072 1420 2755 
Q 1159 2438 1159 1844 
L 1159 0 
L 581 0 
L 581 3500 
L 1159 3500 
L 1159 2956 
Q 1341 3275 1631 3429 
Q 1922 3584 2338 3584 
Q 2397 3584 2469 3576 
Q 2541 3569 2628 3553 
L 2631 2963 
z
" id="DejaVuSans-72" transform="scale(0.015625)"/>
       <path d="M 1959 3097 
Q 1497 3097 1228 2736 
Q 959 2375 959 1747 
Q 959 1119 1226 758 
Q 1494 397 1959 397 
Q 2419 397 2687 759 
Q 2956 1122 2956 1747 
Q 2956 2369 2687 2733 
Q 2419 3097 1959 3097 
z
M 1959 3584 
Q 2709 3584 3137 3096 
Q 3566 2609 3566 1747 
Q 3566 888 3137 398 
Q 2709 -91 1959 -91 
Q 1206 -91 779 398 
Q 353 888 353 1747 
Q 353 2609 779 3096 
Q 1206 3584 1959 3584 
z
" id="DejaVuSans-6f" transform="scale(0.015625)"/>
       <path d="M 1159 525 
L 1159 -1331 
L 581 -1331 
L 581 3500 
L 1159 3500 
L 1159 2969 
Q 1341 3281 1617 3432 
Q 1894 3584 2278 3584 
Q 2916 3584 3314 3078 
Q 3713 2572 3713 1747 
Q 3713 922 3314 415 
Q 2916 -91 2278 -91 
Q 1894 -91 1617 61 
Q 1341 213 1159 525 
z
M 3116 1747 
Q 3116 2381 2855 2742 
Q 2594 3103 2138 3103 
Q 1681 3103 1420 2742 
Q 1159 2381 1159 1747 
Q 1159 1113 1420 752 
Q 1681 391 2138 391 
Q 2594 391 2855 752 
Q 3116 1113 3116 1747 
z
" id="DejaVuSans-70" transform="scale(0.015625)"/>
       <path d="M 2194 1759 
Q 1497 1759 1228 1600 
Q 959 1441 959 1056 
Q 959 750 1161 570 
Q 1363 391 1709 391 
Q 2188 391 2477 730 
Q 2766 1069 2766 1631 
L 2766 1759 
L 2194 1759 
z
M 3341 1997 
L 3341 0 
L 2766 0 
L 2766 531 
Q 2569 213 2275 61 
Q 1981 -91 1556 -91 
Q 1019 -91 701 211 
Q 384 513 384 1019 
Q 384 1609 779 1909 
Q 1175 2209 1959 2209 
L 2766 2209 
L 2766 2266 
Q 2766 2663 2505 2880 
Q 2244 3097 1772 3097 
Q 1472 3097 1187 3025 
Q 903 2953 641 2809 
L 641 3341 
Q 956 3463 1253 3523 
Q 1550 3584 1831 3584 
Q 2591 3584 2966 3190 
Q 3341 2797 3341 1997 
z
" id="DejaVuSans-61" transform="scale(0.015625)"/>
       <path d="M 2906 1791 
Q 2906 2416 2648 2759 
Q 2391 3103 1925 3103 
Q 1463 3103 1205 2759 
Q 947 2416 947 1791 
Q 947 1169 1205 825 
Q 1463 481 1925 481 
Q 2391 481 2648 825 
Q 2906 1169 2906 1791 
z
M 3481 434 
Q 3481 -459 3084 -895 
Q 2688 -1331 1869 -1331 
Q 1566 -1331 1297 -1286 
Q 1028 -1241 775 -1147 
L 775 -588 
Q 1028 -725 1275 -790 
Q 1522 -856 1778 -856 
Q 2344 -856 2625 -561 
Q 2906 -266 2906 331 
L 2906 616 
Q 2728 306 2450 153 
Q 2172 0 1784 0 
Q 1141 0 747 490 
Q 353 981 353 1791 
Q 353 2603 747 3093 
Q 1141 3584 1784 3584 
Q 2172 3584 2450 3431 
Q 2728 3278 2906 2969 
L 2906 3500 
L 3481 3500 
L 3481 434 
z
" id="DejaVuSans-67" transform="scale(0.015625)"/>
       <path d="M 1172 4494 
L 1172 3500 
L 2356 3500 
L 2356 3053 
L 1172 3053 
L 1172 1153 
Q 1172 725 1289 603 
Q 1406 481 1766 481 
L 2356 481 
L 2356 0 
L 1766 0 
Q 1100 0 847 248 
Q 594 497 594 1153 
L 594 3053 
L 172 3053 
L 172 3500 
L 594 3500 
L 594 4494 
L 1172 4494 
z
" id="DejaVuSans-74" transform="scale(0.015625)"/>
       <path d="M 603 3500 
L 1178 3500 
L 1178 0 
L 603 0 
L 603 3500 
z
M 603 4863 
L 1178 4863 
L 1178 4134 
L 603 4134 
L 603 4863 
z
" id="DejaVuSans-69" transform="scale(0.015625)"/>
       <path d="M 3513 2113 
L 3513 0 
L 2938 0 
L 2938 2094 
Q 2938 2591 2744 2837 
Q 2550 3084 2163 3084 
Q 1697 3084 1428 2787 
Q 1159 2491 1159 1978 
L 1159 0 
L 581 0 
L 581 3500 
L 1159 3500 
L 1159 2956 
Q 1366 3272 1645 3428 
Q 1925 3584 2291 3584 
Q 2894 3584 3203 3211 
Q 3513 2838 3513 2113 
z
" id="DejaVuSans-6e" transform="scale(0.015625)"/>
       <path id="DejaVuSans-20" transform="scale(0.015625)"/>
       <path d="M 2906 2969 
L 2906 4863 
L 3481 4863 
L 3481 0 
L 2906 0 
L 2906 525 
Q 2725 213 2448 61 
Q 2172 -91 1784 -91 
Q 1150 -91 751 415 
Q 353 922 353 1747 
Q 353 2572 751 3078 
Q 1150 3584 1784 3584 
Q 2172 3584 2448 3432 
Q 2725 3281 2906 2969 
z
M 947 1747 
Q 947 1113 1208 752 
Q 1469 391 1925 391 
Q 2381 391 2643 752 
Q 2906 1113 2906 1747 
Q 2906 2381 2643 2742 
Q 2381 3103 1925 3103 
Q 1469 3103 1208 2742 
Q 947 2381 947 1747 
z
" id="DejaVuSans-64" transform="scale(0.015625)"/>
       <path d="M 3597 1894 
L 3597 1613 
L 953 1613 
Q 991 1019 1311 708 
Q 1631 397 2203 397 
Q 2534 397 2845 478 
Q 3156 559 3463 722 
L 3463 178 
Q 3153 47 2828 -22 
Q 2503 -91 2169 -91 
Q 1331 -91 842 396 
Q 353 884 353 1716 
Q 353 2575 817 3079 
Q 1281 3584 2069 3584 
Q 2775 3584 3186 3129 
Q 3597 2675 3597 1894 
z
M 3022 2063 
Q 3016 2534 2758 2815 
Q 2500 3097 2075 3097 
Q 1594 3097 1305 2825 
Q 1016 2553 972 2059 
L 3022 2063 
z
" id="DejaVuSans-65" transform="scale(0.015625)"/>
       <path d="M 3122 3366 
L 3122 2828 
Q 2878 2963 2633 3030 
Q 2388 3097 2138 3097 
Q 1578 3097 1268 2742 
Q 959 2388 959 1747 
Q 959 1106 1268 751 
Q 1578 397 2138 397 
Q 2388 397 2633 464 
Q 2878 531 3122 666 
L 3122 134 
Q 2881 22 2623 -34 
Q 2366 -91 2075 -91 
Q 1284 -91 818 406 
Q 353 903 353 1747 
Q 353 2603 823 3093 
Q 1294 3584 2113 3584 
Q 2378 3584 2631 3529 
Q 2884 3475 3122 3366 
z
" id="DejaVuSans-63" transform="scale(0.015625)"/>
      </defs>
      <use xlink:href="#DejaVuSans-50"/>
      <use x="58.552734" xlink:href="#DejaVuSans-72"/>
      <use x="97.416016" xlink:href="#DejaVuSans-6f"/>
      <use x="158.597656" xlink:href="#DejaVuSans-70"/>
      <use x="222.074219" xlink:href="#DejaVuSans-61"/>
      <use x="283.353516" xlink:href="#DejaVuSans-67"/>
      <use x="346.830078" xlink:href="#DejaVuSans-61"/>
      <use x="408.109375" xlink:href="#DejaVuSans-74"/>
      <use x="447.318359" xlink:href="#DejaVuSans-69"/>
      <use x="475.101562" xlink:href="#DejaVuSans-6f"/>
      <use x="536.283203" xlink:href="#DejaVuSans-6e"/>
      <use x="599.662109" xlink:href="#DejaVuSans-20"/>
      <use x="631.449219" xlink:href="#DejaVuSans-64"/>
      <use x="694.925781" xlink:href="#DejaVuSans-69"/>
      <use x="722.708984" xlink:href="#DejaVuSans-72"/>
      <use x="761.572266" xlink:href="#DejaVuSans-65"/>
      <use x="823.095703" xlink:href="#DejaVuSans-63"/>
      <use x="878.076172" xlink:href="#DejaVuSans-74"/>
      <use x="917.285156" xlink:href="#DejaVuSans-69"/>
      <use x="945.068359" xlink:href="#DejaVuSans-6f"/>
      <use x="1006.25" xlink:href="#DejaVuSans-6e"/>
     </g>
    </g>
   </g>
   <g id="matplotlib.axis_2">
    <g id="ytick_1">
     <g id="line2d_7">
      <defs>
       <path d="M 0 0 
L -3.5 0 
" id="md2325be37a" style="stroke:#000000;stroke-width:0.8;"/>
      </defs>
      <g>
       <use style="stroke:#000000;stroke-width:0.8;" x="50.14375" xlink:href="#md2325be37a" y="273.312"/>
      </g>
     </g>
     <g id="text_8">
      <!-- 0.00 -->
      <g transform="translate(20.878125 277.111219)scale(0.1 -0.1)">
       <use xlink:href="#DejaVuSans-30"/>
       <use x="63.623047" xlink:href="#DejaVuSans-2e"/>
       <use x="95.410156" xlink:href="#DejaVuSans-30"/>
       <use x="159.033203" xlink:href="#DejaVuSans-30"/>
      </g>
     </g>
    </g>
    <g id="ytick_2">
     <g id="line2d_8">
      <g>
       <use style="stroke:#000000;stroke-width:0.8;" x="50.14375" xlink:href="#md2325be37a" y="243.67637"/>
      </g>
     </g>
     <g id="text_9">
      <!-- 0.25 -->
      <g transform="translate(20.878125 247.475588)scale(0.1 -0.1)">
       <defs>
        <path d="M 691 4666 
L 3169 4666 
L 3169 4134 
L 1269 4134 
L 1269 2991 
Q 1406 3038 1543 3061 
Q 1681 3084 1819 3084 
Q 2600 3084 3056 2656 
Q 3513 2228 3513 1497 
Q 3513 744 3044 326 
Q 2575 -91 1722 -91 
Q 1428 -91 1123 -41 
Q 819 9 494 109 
L 494 744 
Q 775 591 1075 516 
Q 1375 441 1709 441 
Q 2250 441 2565 725 
Q 2881 1009 2881 1497 
Q 2881 1984 2565 2268 
Q 2250 2553 1709 2553 
Q 1456 2553 1204 2497 
Q 953 2441 691 2322 
L 691 4666 
z
" id="DejaVuSans-35" transform="scale(0.015625)"/>
       </defs>
       <use xlink:href="#DejaVuSans-30"/>
       <use x="63.623047" xlink:href="#DejaVuSans-2e"/>
       <use x="95.410156" xlink:href="#DejaVuSans-32"/>
       <use x="159.033203" xlink:href="#DejaVuSans-35"/>
      </g>
     </g>
    </g>
    <g id="ytick_3">
     <g id="line2d_9">
      <g>
       <use style="stroke:#000000;stroke-width:0.8;" x="50.14375" xlink:href="#md2325be37a" y="214.040739"/>
      </g>
     </g>
     <g id="text_10">
      <!-- 0.50 -->
      <g transform="translate(20.878125 217.839958)scale(0.1 -0.1)">
       <use xlink:href="#DejaVuSans-30"/>
       <use x="63.623047" xlink:href="#DejaVuSans-2e"/>
       <use x="95.410156" xlink:href="#DejaVuSans-35"/>
       <use x="159.033203" xlink:href="#DejaVuSans-30"/>
      </g>
     </g>
    </g>
    <g id="ytick_4">
     <g id="line2d_10">
      <g>
       <use style="stroke:#000000;stroke-width:0.8;" x="50.14375" xlink:href="#md2325be37a" y="184.405109"/>
      </g>
     </g>
     <g id="text_11">
      <!-- 0.75 -->
      <g transform="translate(20.878125 188.204327)scale(0.1 -0.1)">
       <defs>
        <path d="M 525 4666 
L 3525 4666 
L 3525 4397 
L 1831 0 
L 1172 0 
L 2766 4134 
L 525 4134 
L 525 4666 
z
" id="DejaVuSans-37" transform="scale(0.015625)"/>
       </defs>
       <use xlink:href="#DejaVuSans-30"/>
       <use x="63.623047" xlink:href="#DejaVuSans-2e"/>
       <use x="95.410156" xlink:href="#DejaVuSans-37"/>
       <use x="159.033203" xlink:href="#DejaVuSans-35"/>
      </g>
     </g>
    </g>
    <g id="ytick_5">
     <g id="line2d_11">
      <g>
       <use style="stroke:#000000;stroke-width:0.8;" x="50.14375" xlink:href="#md2325be37a" y="154.769478"/>
      </g>
     </g>
     <g id="text_12">
      <!-- 1.00 -->
      <g transform="translate(20.878125 158.568697)scale(0.1 -0.1)">
       <use xlink:href="#DejaVuSans-31"/>
       <use x="63.623047" xlink:href="#DejaVuSans-2e"/>
       <use x="95.410156" xlink:href="#DejaVuSans-30"/>
       <use x="159.033203" xlink:href="#DejaVuSans-30"/>
      </g>
     </g>
    </g>
    <g id="ytick_6">
     <g id="line2d_12">
      <g>
       <use style="stroke:#000000;stroke-width:0.8;" x="50.14375" xlink:href="#md2325be37a" y="125.133848"/>
      </g>
     </g>
     <g id="text_13">
      <!-- 1.25 -->
      <g transform="translate(20.878125 128.933067)scale(0.1 -0.1)">
       <use xlink:href="#DejaVuSans-31"/>
       <use x="63.623047" xlink:href="#DejaVuSans-2e"/>
       <use x="95.410156" xlink:href="#DejaVuSans-32"/>
       <use x="159.033203" xlink:href="#DejaVuSans-35"/>
      </g>
     </g>
    </g>
    <g id="ytick_7">
     <g id="line2d_13">
      <g>
       <use style="stroke:#000000;stroke-width:0.8;" x="50.14375" xlink:href="#md2325be37a" y="95.498217"/>
      </g>
     </g>
     <g id="text_14">
      <!-- 1.50 -->
      <g transform="translate(20.878125 99.297436)scale(0.1 -0.1)">
       <use xlink:href="#DejaVuSans-31"/>
       <use x="63.623047" xlink:href="#DejaVuSans-2e"/>
       <use x="95.410156" xlink:href="#DejaVuSans-35"/>
       <use x="159.033203" xlink:href="#DejaVuSans-30"/>
      </g>
     </g>
    </g>
    <g id="ytick_8">
     <g id="line2d_14">
      <g>
       <use style="stroke:#000000;stroke-width:0.8;" x="50.14375" xlink:href="#md2325be37a" y="65.862587"/>
      </g>
     </g>
     <g id="text_15">
      <!-- 1.75 -->
      <g transform="translate(20.878125 69.661806)scale(0.1 -0.1)">
       <use xlink:href="#DejaVuSans-31"/>
       <use x="63.623047" xlink:href="#DejaVuSans-2e"/>
       <use x="95.410156" xlink:href="#DejaVuSans-37"/>
       <use x="159.033203" xlink:href="#DejaVuSans-35"/>
      </g>
     </g>
    </g>
    <g id="ytick_9">
     <g id="line2d_15">
      <g>
       <use style="stroke:#000000;stroke-width:0.8;" x="50.14375" xlink:href="#md2325be37a" y="36.226956"/>
      </g>
     </g>
     <g id="text_16">
      <!-- 2.00 -->
      <g transform="translate(20.878125 40.026175)scale(0.1 -0.1)">
       <use xlink:href="#DejaVuSans-32"/>
       <use x="63.623047" xlink:href="#DejaVuSans-2e"/>
       <use x="95.410156" xlink:href="#DejaVuSans-30"/>
       <use x="159.033203" xlink:href="#DejaVuSans-30"/>
      </g>
     </g>
    </g>
    <g id="text_17">
     <!-- Probability density -->
     <g transform="translate(14.798438 186.606781)rotate(-90)scale(0.1 -0.1)">
      <defs>
       <path d="M 3116 1747 
Q 3116 2381 2855 2742 
Q 2594 3103 2138 3103 
Q 1681 3103 1420 2742 
Q 1159 2381 1159 1747 
Q 1159 1113 1420 752 
Q 1681 391 2138 391 
Q 2594 391 2855 752 
Q 3116 1113 3116 1747 
z
M 1159 2969 
Q 1341 3281 1617 3432 
Q 1894 3584 2278 3584 
Q 2916 3584 3314 3078 
Q 3713 2572 3713 1747 
Q 3713 922 3314 415 
Q 2916 -91 2278 -91 
Q 1894 -91 1617 61 
Q 1341 213 1159 525 
L 1159 0 
L 581 0 
L 581 4863 
L 1159 4863 
L 1159 2969 
z
" id="DejaVuSans-62" transform="scale(0.015625)"/>
       <path d="M 603 4863 
L 1178 4863 
L 1178 0 
L 603 0 
L 603 4863 
z
" id="DejaVuSans-6c" transform="scale(0.015625)"/>
       <path d="M 2059 -325 
Q 1816 -950 1584 -1140 
Q 1353 -1331 966 -1331 
L 506 -1331 
L 506 -850 
L 844 -850 
Q 1081 -850 1212 -737 
Q 1344 -625 1503 -206 
L 1606 56 
L 191 3500 
L 800 3500 
L 1894 763 
L 2988 3500 
L 3597 3500 
L 2059 -325 
z
" id="DejaVuSans-79" transform="scale(0.015625)"/>
       <path d="M 2834 3397 
L 2834 2853 
Q 2591 2978 2328 3040 
Q 2066 3103 1784 3103 
Q 1356 3103 1142 2972 
Q 928 2841 928 2578 
Q 928 2378 1081 2264 
Q 1234 2150 1697 2047 
L 1894 2003 
Q 2506 1872 2764 1633 
Q 3022 1394 3022 966 
Q 3022 478 2636 193 
Q 2250 -91 1575 -91 
Q 1294 -91 989 -36 
Q 684 19 347 128 
L 347 722 
Q 666 556 975 473 
Q 1284 391 1588 391 
Q 1994 391 2212 530 
Q 2431 669 2431 922 
Q 2431 1156 2273 1281 
Q 2116 1406 1581 1522 
L 1381 1569 
Q 847 1681 609 1914 
Q 372 2147 372 2553 
Q 372 3047 722 3315 
Q 1072 3584 1716 3584 
Q 2034 3584 2315 3537 
Q 2597 3491 2834 3397 
z
" id="DejaVuSans-73" transform="scale(0.015625)"/>
      </defs>
      <use xlink:href="#DejaVuSans-50"/>
      <use x="58.552734" xlink:href="#DejaVuSans-72"/>
      <use x="97.416016" xlink:href="#DejaVuSans-6f"/>
      <use x="158.597656" xlink:href="#DejaVuSans-62"/>
      <use x="222.074219" xlink:href="#DejaVuSans-61"/>
      <use x="283.353516" xlink:href="#DejaVuSans-62"/>
      <use x="346.830078" xlink:href="#DejaVuSans-69"/>
      <use x="374.613281" xlink:href="#DejaVuSans-6c"/>
      <use x="402.396484" xlink:href="#DejaVuSans-69"/>
      <use x="430.179688" xlink:href="#DejaVuSans-74"/>
      <use x="469.388672" xlink:href="#DejaVuSans-79"/>
      <use x="528.568359" xlink:href="#DejaVuSans-20"/>
      <use x="560.355469" xlink:href="#DejaVuSans-64"/>
      <use x="623.832031" xlink:href="#DejaVuSans-65"/>
      <use x="685.355469" xlink:href="#DejaVuSans-6e"/>
      <use x="748.734375" xlink:href="#DejaVuSans-73"/>
      <use x="800.833984" xlink:href="#DejaVuSans-69"/>
      <use x="828.617188" xlink:href="#DejaVuSans-74"/>
      <use x="867.826172" xlink:href="#DejaVuSans-79"/>
     </g>
    </g>
   </g>
   <g id="line2d_16">
    <path clip-path="url(#p085ca806ed)" d="M 66.376477 273.312 
L 391.031023 36.226956 
L 391.031023 36.226956 
" style="fill:none;stroke:#ff7f0e;stroke-linecap:square;stroke-width:1.5;"/>
   </g>
   <g id="patch_203">
    <path d="M 50.14375 273.312 
L 50.14375 7.2 
" style="fill:none;stroke:#000000;stroke-linecap:square;stroke-linejoin:miter;stroke-width:0.8;"/>
   </g>
   <g id="patch_204">
    <path d="M 407.26375 273.312 
L 407.26375 7.2 
" style="fill:none;stroke:#000000;stroke-linecap:square;stroke-linejoin:miter;stroke-width:0.8;"/>
   </g>
   <g id="patch_205">
    <path d="M 50.14375 273.312 
L 407.26375 273.312 
" style="fill:none;stroke:#000000;stroke-linecap:square;stroke-linejoin:miter;stroke-width:0.8;"/>
   </g>
   <g id="patch_206">
    <path d="M 50.14375 7.2 
L 407.26375 7.2 
" style="fill:none;stroke:#000000;stroke-linecap:square;stroke-linejoin:miter;stroke-width:0.8;"/>
   </g>
  </g>
 </g>
 <defs>
  <clipPath id="p085ca806ed">
   <rect height="266.112" width="357.12" x="50.14375" y="7.2"/>
  </clipPath>
 </defs>
</svg>
