<?xml version="1.0" encoding="utf-8" standalone="no"?>
<!DOCTYPE svg PUBLIC "-//W3C//DTD SVG 1.1//EN"
  "http://www.w3.org/Graphics/SVG/1.1/DTD/svg11.dtd">
<svg height="310.86825pt" version="1.1" viewBox="0 0 408.10125 310.86825" width="408.10125pt" xmlns="http://www.w3.org/2000/svg" xmlns:xlink="http://www.w3.org/1999/xlink">
 <metadata>
  <rdf:RDF xmlns:cc="http://creativecommons.org/ns#" xmlns:dc="http://purl.org/dc/elements/1.1/" xmlns:rdf="http://www.w3.org/1999/02/22-rdf-syntax-ns#">
   <cc:Work>
    <dc:type rdf:resource="http://purl.org/dc/dcmitype/StillImage"/>
    <dc:date>2021-07-11T01:24:58.055899</dc:date>
    <dc:format>image/svg+xml</dc:format>
    <dc:creator>
     <cc:Agent>
      <dc:title>Matplotlib v3.4.2, https://matplotlib.org/</dc:title>
     </cc:Agent>
    </dc:creator>
   </cc:Work>
  </rdf:RDF>
 </metadata>
 <defs>
  <style type="text/css">*{stroke-linecap:butt;stroke-linejoin:round;}</style>
 </defs>
 <g id="figure_1">
  <g id="patch_1">
   <path d="M 0 310.86825 
L 408.10125 310.86825 
L 408.10125 0 
L 0 0 
z
" style="fill:#ffffff;"/>
  </g>
  <g id="axes_1">
   <g id="patch_2">
    <path d="M 43.78125 273.312 
L 400.90125 273.312 
L 400.90125 7.2 
L 43.78125 7.2 
z
" style="fill:#ffffff;"/>
   </g>
   <g id="patch_3">
    <path clip-path="url(#p56e43ed2ab)" d="M 60.46406 273.312 
L 62.081234 273.312 
L 62.081234 269.732339 
L 60.46406 269.732339 
z
" style="fill:#1f77b4;"/>
   </g>
   <g id="patch_4">
    <path clip-path="url(#p56e43ed2ab)" d="M 62.081234 273.312 
L 63.698408 273.312 
L 63.698408 266.152678 
L 62.081234 266.152678 
z
" style="fill:#1f77b4;"/>
   </g>
   <g id="patch_5">
    <path clip-path="url(#p56e43ed2ab)" d="M 63.698408 273.312 
L 65.315581 273.312 
L 65.315581 262.573017 
L 63.698408 262.573017 
z
" style="fill:#1f77b4;"/>
   </g>
   <g id="patch_6">
    <path clip-path="url(#p56e43ed2ab)" d="M 65.315581 273.312 
L 66.932755 273.312 
L 66.932755 258.993356 
L 65.315581 258.993356 
z
" style="fill:#1f77b4;"/>
   </g>
   <g id="patch_7">
    <path clip-path="url(#p56e43ed2ab)" d="M 66.932755 273.312 
L 68.549929 273.312 
L 68.549929 257.561492 
L 66.932755 257.561492 
z
" style="fill:#1f77b4;"/>
   </g>
   <g id="patch_8">
    <path clip-path="url(#p56e43ed2ab)" d="M 68.549929 273.312 
L 70.167103 273.312 
L 70.167103 252.549966 
L 68.549929 252.549966 
z
" style="fill:#1f77b4;"/>
   </g>
   <g id="patch_9">
    <path clip-path="url(#p56e43ed2ab)" d="M 70.167103 273.312 
L 71.784277 273.312 
L 71.784277 256.845559 
L 70.167103 256.845559 
z
" style="fill:#1f77b4;"/>
   </g>
   <g id="patch_10">
    <path clip-path="url(#p56e43ed2ab)" d="M 71.784277 273.312 
L 73.401451 273.312 
L 73.401451 247.538441 
L 71.784277 247.538441 
z
" style="fill:#1f77b4;"/>
   </g>
   <g id="patch_11">
    <path clip-path="url(#p56e43ed2ab)" d="M 73.401451 273.312 
L 75.018624 273.312 
L 75.018624 241.810983 
L 73.401451 241.810983 
z
" style="fill:#1f77b4;"/>
   </g>
   <g id="patch_12">
    <path clip-path="url(#p56e43ed2ab)" d="M 75.018624 273.312 
L 76.635798 273.312 
L 76.635798 232.503864 
L 75.018624 232.503864 
z
" style="fill:#1f77b4;"/>
   </g>
   <g id="patch_13">
    <path clip-path="url(#p56e43ed2ab)" d="M 76.635798 273.312 
L 78.252972 273.312 
L 78.252972 237.51539 
L 76.635798 237.51539 
z
" style="fill:#1f77b4;"/>
   </g>
   <g id="patch_14">
    <path clip-path="url(#p56e43ed2ab)" d="M 78.252972 273.312 
L 79.870146 273.312 
L 79.870146 226.060475 
L 78.252972 226.060475 
z
" style="fill:#1f77b4;"/>
   </g>
   <g id="patch_15">
    <path clip-path="url(#p56e43ed2ab)" d="M 79.870146 273.312 
L 81.48732 273.312 
L 81.48732 228.924203 
L 79.870146 228.924203 
z
" style="fill:#1f77b4;"/>
   </g>
   <g id="patch_16">
    <path clip-path="url(#p56e43ed2ab)" d="M 81.48732 273.312 
L 83.104494 273.312 
L 83.104494 228.924203 
L 81.48732 228.924203 
z
" style="fill:#1f77b4;"/>
   </g>
   <g id="patch_17">
    <path clip-path="url(#p56e43ed2ab)" d="M 83.104494 273.312 
L 84.721667 273.312 
L 84.721667 218.18522 
L 83.104494 218.18522 
z
" style="fill:#1f77b4;"/>
   </g>
   <g id="patch_18">
    <path clip-path="url(#p56e43ed2ab)" d="M 84.721667 273.312 
L 86.338841 273.312 
L 86.338841 223.196746 
L 84.721667 223.196746 
z
" style="fill:#1f77b4;"/>
   </g>
   <g id="patch_19">
    <path clip-path="url(#p56e43ed2ab)" d="M 86.338841 273.312 
L 87.956015 273.312 
L 87.956015 201.71878 
L 86.338841 201.71878 
z
" style="fill:#1f77b4;"/>
   </g>
   <g id="patch_20">
    <path clip-path="url(#p56e43ed2ab)" d="M 87.956015 273.312 
L 89.573189 273.312 
L 89.573189 205.298441 
L 87.956015 205.298441 
z
" style="fill:#1f77b4;"/>
   </g>
   <g id="patch_21">
    <path clip-path="url(#p56e43ed2ab)" d="M 89.573189 273.312 
L 91.190363 273.312 
L 91.190363 210.309966 
L 89.573189 210.309966 
z
" style="fill:#1f77b4;"/>
   </g>
   <g id="patch_22">
    <path clip-path="url(#p56e43ed2ab)" d="M 91.190363 273.312 
L 92.807537 273.312 
L 92.807537 205.298441 
L 91.190363 205.298441 
z
" style="fill:#1f77b4;"/>
   </g>
   <g id="patch_23">
    <path clip-path="url(#p56e43ed2ab)" d="M 92.807537 273.312 
L 94.42471 273.312 
L 94.42471 209.594034 
L 92.807537 209.594034 
z
" style="fill:#1f77b4;"/>
   </g>
   <g id="patch_24">
    <path clip-path="url(#p56e43ed2ab)" d="M 94.42471 273.312 
L 96.041884 273.312 
L 96.041884 202.434712 
L 94.42471 202.434712 
z
" style="fill:#1f77b4;"/>
   </g>
   <g id="patch_25">
    <path clip-path="url(#p56e43ed2ab)" d="M 96.041884 273.312 
L 97.659058 273.312 
L 97.659058 193.127593 
L 96.041884 193.127593 
z
" style="fill:#1f77b4;"/>
   </g>
   <g id="patch_26">
    <path clip-path="url(#p56e43ed2ab)" d="M 97.659058 273.312 
L 99.276232 273.312 
L 99.276232 187.400136 
L 97.659058 187.400136 
z
" style="fill:#1f77b4;"/>
   </g>
   <g id="patch_27">
    <path clip-path="url(#p56e43ed2ab)" d="M 99.276232 273.312 
L 100.893406 273.312 
L 100.893406 183.820475 
L 99.276232 183.820475 
z
" style="fill:#1f77b4;"/>
   </g>
   <g id="patch_28">
    <path clip-path="url(#p56e43ed2ab)" d="M 100.893406 273.312 
L 102.510579 273.312 
L 102.510579 173.081492 
L 100.893406 173.081492 
z
" style="fill:#1f77b4;"/>
   </g>
   <g id="patch_29">
    <path clip-path="url(#p56e43ed2ab)" d="M 102.510579 273.312 
L 104.127753 273.312 
L 104.127753 184.536407 
L 102.510579 184.536407 
z
" style="fill:#1f77b4;"/>
   </g>
   <g id="patch_30">
    <path clip-path="url(#p56e43ed2ab)" d="M 104.127753 273.312 
L 105.744927 273.312 
L 105.744927 175.94522 
L 104.127753 175.94522 
z
" style="fill:#1f77b4;"/>
   </g>
   <g id="patch_31">
    <path clip-path="url(#p56e43ed2ab)" d="M 105.744927 273.312 
L 107.362101 273.312 
L 107.362101 168.069966 
L 105.744927 168.069966 
z
" style="fill:#1f77b4;"/>
   </g>
   <g id="patch_32">
    <path clip-path="url(#p56e43ed2ab)" d="M 107.362101 273.312 
L 108.979275 273.312 
L 108.979275 179.524881 
L 107.362101 179.524881 
z
" style="fill:#1f77b4;"/>
   </g>
   <g id="patch_33">
    <path clip-path="url(#p56e43ed2ab)" d="M 108.979275 273.312 
L 110.596449 273.312 
L 110.596449 179.524881 
L 108.979275 179.524881 
z
" style="fill:#1f77b4;"/>
   </g>
   <g id="patch_34">
    <path clip-path="url(#p56e43ed2ab)" d="M 110.596449 273.312 
L 112.213622 273.312 
L 112.213622 158.762847 
L 110.596449 158.762847 
z
" style="fill:#1f77b4;"/>
   </g>
   <g id="patch_35">
    <path clip-path="url(#p56e43ed2ab)" d="M 112.213622 273.312 
L 113.830796 273.312 
L 113.830796 161.626576 
L 112.213622 161.626576 
z
" style="fill:#1f77b4;"/>
   </g>
   <g id="patch_36">
    <path clip-path="url(#p56e43ed2ab)" d="M 113.830796 273.312 
L 115.44797 273.312 
L 115.44797 142.296407 
L 113.830796 142.296407 
z
" style="fill:#1f77b4;"/>
   </g>
   <g id="patch_37">
    <path clip-path="url(#p56e43ed2ab)" d="M 115.44797 273.312 
L 117.065144 273.312 
L 117.065144 152.319458 
L 115.44797 152.319458 
z
" style="fill:#1f77b4;"/>
   </g>
   <g id="patch_38">
    <path clip-path="url(#p56e43ed2ab)" d="M 117.065144 273.312 
L 118.682318 273.312 
L 118.682318 145.160136 
L 117.065144 145.160136 
z
" style="fill:#1f77b4;"/>
   </g>
   <g id="patch_39">
    <path clip-path="url(#p56e43ed2ab)" d="M 118.682318 273.312 
L 120.299492 273.312 
L 120.299492 160.194712 
L 118.682318 160.194712 
z
" style="fill:#1f77b4;"/>
   </g>
   <g id="patch_40">
    <path clip-path="url(#p56e43ed2ab)" d="M 120.299492 273.312 
L 121.916665 273.312 
L 121.916665 153.751322 
L 120.299492 153.751322 
z
" style="fill:#1f77b4;"/>
   </g>
   <g id="patch_41">
    <path clip-path="url(#p56e43ed2ab)" d="M 121.916665 273.312 
L 123.533839 273.312 
L 123.533839 159.47878 
L 121.916665 159.47878 
z
" style="fill:#1f77b4;"/>
   </g>
   <g id="patch_42">
    <path clip-path="url(#p56e43ed2ab)" d="M 123.533839 273.312 
L 125.151013 273.312 
L 125.151013 153.03539 
L 123.533839 153.03539 
z
" style="fill:#1f77b4;"/>
   </g>
   <g id="patch_43">
    <path clip-path="url(#p56e43ed2ab)" d="M 125.151013 273.312 
L 126.768187 273.312 
L 126.768187 128.693695 
L 125.151013 128.693695 
z
" style="fill:#1f77b4;"/>
   </g>
   <g id="patch_44">
    <path clip-path="url(#p56e43ed2ab)" d="M 126.768187 273.312 
L 128.385361 273.312 
L 128.385361 131.557424 
L 126.768187 131.557424 
z
" style="fill:#1f77b4;"/>
   </g>
   <g id="patch_45">
    <path clip-path="url(#p56e43ed2ab)" d="M 128.385361 273.312 
L 130.002535 273.312 
L 130.002535 116.522847 
L 128.385361 116.522847 
z
" style="fill:#1f77b4;"/>
   </g>
   <g id="patch_46">
    <path clip-path="url(#p56e43ed2ab)" d="M 130.002535 273.312 
L 131.619708 273.312 
L 131.619708 135.137085 
L 130.002535 135.137085 
z
" style="fill:#1f77b4;"/>
   </g>
   <g id="patch_47">
    <path clip-path="url(#p56e43ed2ab)" d="M 131.619708 273.312 
L 133.236882 273.312 
L 133.236882 122.966237 
L 131.619708 122.966237 
z
" style="fill:#1f77b4;"/>
   </g>
   <g id="patch_48">
    <path clip-path="url(#p56e43ed2ab)" d="M 133.236882 273.312 
L 134.854056 273.312 
L 134.854056 153.03539 
L 133.236882 153.03539 
z
" style="fill:#1f77b4;"/>
   </g>
   <g id="patch_49">
    <path clip-path="url(#p56e43ed2ab)" d="M 134.854056 273.312 
L 136.47123 273.312 
L 136.47123 118.670644 
L 134.854056 118.670644 
z
" style="fill:#1f77b4;"/>
   </g>
   <g id="patch_50">
    <path clip-path="url(#p56e43ed2ab)" d="M 136.47123 273.312 
L 138.088404 273.312 
L 138.088404 132.989288 
L 136.47123 132.989288 
z
" style="fill:#1f77b4;"/>
   </g>
   <g id="patch_51">
    <path clip-path="url(#p56e43ed2ab)" d="M 138.088404 273.312 
L 139.705577 273.312 
L 139.705577 114.375051 
L 138.088404 114.375051 
z
" style="fill:#1f77b4;"/>
   </g>
   <g id="patch_52">
    <path clip-path="url(#p56e43ed2ab)" d="M 139.705577 273.312 
L 141.322751 273.312 
L 141.322751 106.499797 
L 139.705577 106.499797 
z
" style="fill:#1f77b4;"/>
   </g>
   <g id="patch_53">
    <path clip-path="url(#p56e43ed2ab)" d="M 141.322751 273.312 
L 142.939925 273.312 
L 142.939925 100.772339 
L 141.322751 100.772339 
z
" style="fill:#1f77b4;"/>
   </g>
   <g id="patch_54">
    <path clip-path="url(#p56e43ed2ab)" d="M 142.939925 273.312 
L 144.557099 273.312 
L 144.557099 122.250305 
L 142.939925 122.250305 
z
" style="fill:#1f77b4;"/>
   </g>
   <g id="patch_55">
    <path clip-path="url(#p56e43ed2ab)" d="M 144.557099 273.312 
L 146.174273 273.312 
L 146.174273 117.954712 
L 144.557099 117.954712 
z
" style="fill:#1f77b4;"/>
   </g>
   <g id="patch_56">
    <path clip-path="url(#p56e43ed2ab)" d="M 146.174273 273.312 
L 147.791447 273.312 
L 147.791447 99.340475 
L 146.174273 99.340475 
z
" style="fill:#1f77b4;"/>
   </g>
   <g id="patch_57">
    <path clip-path="url(#p56e43ed2ab)" d="M 147.791447 273.312 
L 149.40862 273.312 
L 149.40862 97.90861 
L 147.791447 97.90861 
z
" style="fill:#1f77b4;"/>
   </g>
   <g id="patch_58">
    <path clip-path="url(#p56e43ed2ab)" d="M 149.40862 273.312 
L 151.025794 273.312 
L 151.025794 113.659119 
L 149.40862 113.659119 
z
" style="fill:#1f77b4;"/>
   </g>
   <g id="patch_59">
    <path clip-path="url(#p56e43ed2ab)" d="M 151.025794 273.312 
L 152.642968 273.312 
L 152.642968 120.102508 
L 151.025794 120.102508 
z
" style="fill:#1f77b4;"/>
   </g>
   <g id="patch_60">
    <path clip-path="url(#p56e43ed2ab)" d="M 152.642968 273.312 
L 154.260142 273.312 
L 154.260142 91.46522 
L 152.642968 91.46522 
z
" style="fill:#1f77b4;"/>
   </g>
   <g id="patch_61">
    <path clip-path="url(#p56e43ed2ab)" d="M 154.260142 273.312 
L 155.877316 273.312 
L 155.877316 92.897085 
L 154.260142 92.897085 
z
" style="fill:#1f77b4;"/>
   </g>
   <g id="patch_62">
    <path clip-path="url(#p56e43ed2ab)" d="M 155.877316 273.312 
L 157.49449 273.312 
L 157.49449 84.305898 
L 155.877316 84.305898 
z
" style="fill:#1f77b4;"/>
   </g>
   <g id="patch_63">
    <path clip-path="url(#p56e43ed2ab)" d="M 157.49449 273.312 
L 159.111663 273.312 
L 159.111663 69.987254 
L 157.49449 69.987254 
z
" style="fill:#1f77b4;"/>
   </g>
   <g id="patch_64">
    <path clip-path="url(#p56e43ed2ab)" d="M 159.111663 273.312 
L 160.728837 273.312 
L 160.728837 89.317424 
L 159.111663 89.317424 
z
" style="fill:#1f77b4;"/>
   </g>
   <g id="patch_65">
    <path clip-path="url(#p56e43ed2ab)" d="M 160.728837 273.312 
L 162.346011 273.312 
L 162.346011 87.169627 
L 160.728837 87.169627 
z
" style="fill:#1f77b4;"/>
   </g>
   <g id="patch_66">
    <path clip-path="url(#p56e43ed2ab)" d="M 162.346011 273.312 
L 163.963185 273.312 
L 163.963185 85.021831 
L 162.346011 85.021831 
z
" style="fill:#1f77b4;"/>
   </g>
   <g id="patch_67">
    <path clip-path="url(#p56e43ed2ab)" d="M 163.963185 273.312 
L 165.580359 273.312 
L 165.580359 93.613017 
L 163.963185 93.613017 
z
" style="fill:#1f77b4;"/>
   </g>
   <g id="patch_68">
    <path clip-path="url(#p56e43ed2ab)" d="M 165.580359 273.312 
L 167.197532 273.312 
L 167.197532 70.703186 
L 165.580359 70.703186 
z
" style="fill:#1f77b4;"/>
   </g>
   <g id="patch_69">
    <path clip-path="url(#p56e43ed2ab)" d="M 167.197532 273.312 
L 168.814706 273.312 
L 168.814706 87.885559 
L 167.197532 87.885559 
z
" style="fill:#1f77b4;"/>
   </g>
   <g id="patch_70">
    <path clip-path="url(#p56e43ed2ab)" d="M 168.814706 273.312 
L 170.43188 273.312 
L 170.43188 59.964203 
L 168.814706 59.964203 
z
" style="fill:#1f77b4;"/>
   </g>
   <g id="patch_71">
    <path clip-path="url(#p56e43ed2ab)" d="M 170.43188 273.312 
L 172.049054 273.312 
L 172.049054 80.726237 
L 170.43188 80.726237 
z
" style="fill:#1f77b4;"/>
   </g>
   <g id="patch_72">
    <path clip-path="url(#p56e43ed2ab)" d="M 172.049054 273.312 
L 173.666228 273.312 
L 173.666228 74.99878 
L 172.049054 74.99878 
z
" style="fill:#1f77b4;"/>
   </g>
   <g id="patch_73">
    <path clip-path="url(#p56e43ed2ab)" d="M 173.666228 273.312 
L 175.283402 273.312 
L 175.283402 78.578441 
L 173.666228 78.578441 
z
" style="fill:#1f77b4;"/>
   </g>
   <g id="patch_74">
    <path clip-path="url(#p56e43ed2ab)" d="M 175.283402 273.312 
L 176.900575 273.312 
L 176.900575 61.396068 
L 175.283402 61.396068 
z
" style="fill:#1f77b4;"/>
   </g>
   <g id="patch_75">
    <path clip-path="url(#p56e43ed2ab)" d="M 176.900575 273.312 
L 178.517749 273.312 
L 178.517749 60.680136 
L 176.900575 60.680136 
z
" style="fill:#1f77b4;"/>
   </g>
   <g id="patch_76">
    <path clip-path="url(#p56e43ed2ab)" d="M 178.517749 273.312 
L 180.134923 273.312 
L 180.134923 80.010305 
L 178.517749 80.010305 
z
" style="fill:#1f77b4;"/>
   </g>
   <g id="patch_77">
    <path clip-path="url(#p56e43ed2ab)" d="M 180.134923 273.312 
L 181.752097 273.312 
L 181.752097 67.839458 
L 180.134923 67.839458 
z
" style="fill:#1f77b4;"/>
   </g>
   <g id="patch_78">
    <path clip-path="url(#p56e43ed2ab)" d="M 181.752097 273.312 
L 183.369271 273.312 
L 183.369271 83.589966 
L 181.752097 83.589966 
z
" style="fill:#1f77b4;"/>
   </g>
   <g id="patch_79">
    <path clip-path="url(#p56e43ed2ab)" d="M 183.369271 273.312 
L 184.986445 273.312 
L 184.986445 46.361492 
L 183.369271 46.361492 
z
" style="fill:#1f77b4;"/>
   </g>
   <g id="patch_80">
    <path clip-path="url(#p56e43ed2ab)" d="M 184.986445 273.312 
L 186.603618 273.312 
L 186.603618 71.419119 
L 184.986445 71.419119 
z
" style="fill:#1f77b4;"/>
   </g>
   <g id="patch_81">
    <path clip-path="url(#p56e43ed2ab)" d="M 186.603618 273.312 
L 188.220792 273.312 
L 188.220792 52.804881 
L 186.603618 52.804881 
z
" style="fill:#1f77b4;"/>
   </g>
   <g id="patch_82">
    <path clip-path="url(#p56e43ed2ab)" d="M 188.220792 273.312 
L 189.837966 273.312 
L 189.837966 62.112 
L 188.220792 62.112 
z
" style="fill:#1f77b4;"/>
   </g>
   <g id="patch_83">
    <path clip-path="url(#p56e43ed2ab)" d="M 189.837966 273.312 
L 191.45514 273.312 
L 191.45514 62.827932 
L 189.837966 62.827932 
z
" style="fill:#1f77b4;"/>
   </g>
   <g id="patch_84">
    <path clip-path="url(#p56e43ed2ab)" d="M 191.45514 273.312 
L 193.072314 273.312 
L 193.072314 53.520814 
L 191.45514 53.520814 
z
" style="fill:#1f77b4;"/>
   </g>
   <g id="patch_85">
    <path clip-path="url(#p56e43ed2ab)" d="M 193.072314 273.312 
L 194.689488 273.312 
L 194.689488 54.952678 
L 193.072314 54.952678 
z
" style="fill:#1f77b4;"/>
   </g>
   <g id="patch_86">
    <path clip-path="url(#p56e43ed2ab)" d="M 194.689488 273.312 
L 196.306661 273.312 
L 196.306661 47.793356 
L 194.689488 47.793356 
z
" style="fill:#1f77b4;"/>
   </g>
   <g id="patch_87">
    <path clip-path="url(#p56e43ed2ab)" d="M 196.306661 273.312 
L 197.923835 273.312 
L 197.923835 74.99878 
L 196.306661 74.99878 
z
" style="fill:#1f77b4;"/>
   </g>
   <g id="patch_88">
    <path clip-path="url(#p56e43ed2ab)" d="M 197.923835 273.312 
L 199.541009 273.312 
L 199.541009 42.065898 
L 197.923835 42.065898 
z
" style="fill:#1f77b4;"/>
   </g>
   <g id="patch_89">
    <path clip-path="url(#p56e43ed2ab)" d="M 199.541009 273.312 
L 201.158183 273.312 
L 201.158183 72.850983 
L 199.541009 72.850983 
z
" style="fill:#1f77b4;"/>
   </g>
   <g id="patch_90">
    <path clip-path="url(#p56e43ed2ab)" d="M 201.158183 273.312 
L 202.775357 273.312 
L 202.775357 29.895051 
L 201.158183 29.895051 
z
" style="fill:#1f77b4;"/>
   </g>
   <g id="patch_91">
    <path clip-path="url(#p56e43ed2ab)" d="M 202.775357 273.312 
L 204.39253 273.312 
L 204.39253 52.088949 
L 202.775357 52.088949 
z
" style="fill:#1f77b4;"/>
   </g>
   <g id="patch_92">
    <path clip-path="url(#p56e43ed2ab)" d="M 204.39253 273.312 
L 206.009704 273.312 
L 206.009704 47.077424 
L 204.39253 47.077424 
z
" style="fill:#1f77b4;"/>
   </g>
   <g id="patch_93">
    <path clip-path="url(#p56e43ed2ab)" d="M 206.009704 273.312 
L 207.626878 273.312 
L 207.626878 65.691661 
L 206.009704 65.691661 
z
" style="fill:#1f77b4;"/>
   </g>
   <g id="patch_94">
    <path clip-path="url(#p56e43ed2ab)" d="M 207.626878 273.312 
L 209.244052 273.312 
L 209.244052 59.248271 
L 207.626878 59.248271 
z
" style="fill:#1f77b4;"/>
   </g>
   <g id="patch_95">
    <path clip-path="url(#p56e43ed2ab)" d="M 209.244052 273.312 
L 210.861226 273.312 
L 210.861226 51.373017 
L 209.244052 51.373017 
z
" style="fill:#1f77b4;"/>
   </g>
   <g id="patch_96">
    <path clip-path="url(#p56e43ed2ab)" d="M 210.861226 273.312 
L 212.4784 273.312 
L 212.4784 61.396068 
L 210.861226 61.396068 
z
" style="fill:#1f77b4;"/>
   </g>
   <g id="patch_97">
    <path clip-path="url(#p56e43ed2ab)" d="M 212.4784 273.312 
L 214.095573 273.312 
L 214.095573 82.158102 
L 212.4784 82.158102 
z
" style="fill:#1f77b4;"/>
   </g>
   <g id="patch_98">
    <path clip-path="url(#p56e43ed2ab)" d="M 214.095573 273.312 
L 215.712747 273.312 
L 215.712747 54.236746 
L 214.095573 54.236746 
z
" style="fill:#1f77b4;"/>
   </g>
   <g id="patch_99">
    <path clip-path="url(#p56e43ed2ab)" d="M 215.712747 273.312 
L 217.329921 273.312 
L 217.329921 38.486237 
L 215.712747 38.486237 
z
" style="fill:#1f77b4;"/>
   </g>
   <g id="patch_100">
    <path clip-path="url(#p56e43ed2ab)" d="M 217.329921 273.312 
L 218.947095 273.312 
L 218.947095 55.66861 
L 217.329921 55.66861 
z
" style="fill:#1f77b4;"/>
   </g>
   <g id="patch_101">
    <path clip-path="url(#p56e43ed2ab)" d="M 218.947095 273.312 
L 220.564269 273.312 
L 220.564269 56.384542 
L 218.947095 56.384542 
z
" style="fill:#1f77b4;"/>
   </g>
   <g id="patch_102">
    <path clip-path="url(#p56e43ed2ab)" d="M 220.564269 273.312 
L 222.181443 273.312 
L 222.181443 59.248271 
L 220.564269 59.248271 
z
" style="fill:#1f77b4;"/>
   </g>
   <g id="patch_103">
    <path clip-path="url(#p56e43ed2ab)" d="M 222.181443 273.312 
L 223.798616 273.312 
L 223.798616 44.213695 
L 222.181443 44.213695 
z
" style="fill:#1f77b4;"/>
   </g>
   <g id="patch_104">
    <path clip-path="url(#p56e43ed2ab)" d="M 223.798616 273.312 
L 225.41579 273.312 
L 225.41579 37.054373 
L 223.798616 37.054373 
z
" style="fill:#1f77b4;"/>
   </g>
   <g id="patch_105">
    <path clip-path="url(#p56e43ed2ab)" d="M 225.41579 273.312 
L 227.032964 273.312 
L 227.032964 51.373017 
L 225.41579 51.373017 
z
" style="fill:#1f77b4;"/>
   </g>
   <g id="patch_106">
    <path clip-path="url(#p56e43ed2ab)" d="M 227.032964 273.312 
L 228.650138 273.312 
L 228.650138 39.918102 
L 227.032964 39.918102 
z
" style="fill:#1f77b4;"/>
   </g>
   <g id="patch_107">
    <path clip-path="url(#p56e43ed2ab)" d="M 228.650138 273.312 
L 230.267312 273.312 
L 230.267312 69.271322 
L 228.650138 69.271322 
z
" style="fill:#1f77b4;"/>
   </g>
   <g id="patch_108">
    <path clip-path="url(#p56e43ed2ab)" d="M 230.267312 273.312 
L 231.884486 273.312 
L 231.884486 43.497763 
L 230.267312 43.497763 
z
" style="fill:#1f77b4;"/>
   </g>
   <g id="patch_109">
    <path clip-path="url(#p56e43ed2ab)" d="M 231.884486 273.312 
L 233.501659 273.312 
L 233.501659 66.407593 
L 231.884486 66.407593 
z
" style="fill:#1f77b4;"/>
   </g>
   <g id="patch_110">
    <path clip-path="url(#p56e43ed2ab)" d="M 233.501659 273.312 
L 235.118833 273.312 
L 235.118833 39.918102 
L 233.501659 39.918102 
z
" style="fill:#1f77b4;"/>
   </g>
   <g id="patch_111">
    <path clip-path="url(#p56e43ed2ab)" d="M 235.118833 273.312 
L 236.736007 273.312 
L 236.736007 59.964203 
L 235.118833 59.964203 
z
" style="fill:#1f77b4;"/>
   </g>
   <g id="patch_112">
    <path clip-path="url(#p56e43ed2ab)" d="M 236.736007 273.312 
L 238.353181 273.312 
L 238.353181 47.793356 
L 236.736007 47.793356 
z
" style="fill:#1f77b4;"/>
   </g>
   <g id="patch_113">
    <path clip-path="url(#p56e43ed2ab)" d="M 238.353181 273.312 
L 239.970355 273.312 
L 239.970355 19.872 
L 238.353181 19.872 
z
" style="fill:#1f77b4;"/>
   </g>
   <g id="patch_114">
    <path clip-path="url(#p56e43ed2ab)" d="M 239.970355 273.312 
L 241.587528 273.312 
L 241.587528 51.373017 
L 239.970355 51.373017 
z
" style="fill:#1f77b4;"/>
   </g>
   <g id="patch_115">
    <path clip-path="url(#p56e43ed2ab)" d="M 241.587528 273.312 
L 243.204702 273.312 
L 243.204702 62.112 
L 241.587528 62.112 
z
" style="fill:#1f77b4;"/>
   </g>
   <g id="patch_116">
    <path clip-path="url(#p56e43ed2ab)" d="M 243.204702 273.312 
L 244.821876 273.312 
L 244.821876 56.384542 
L 243.204702 56.384542 
z
" style="fill:#1f77b4;"/>
   </g>
   <g id="patch_117">
    <path clip-path="url(#p56e43ed2ab)" d="M 244.821876 273.312 
L 246.43905 273.312 
L 246.43905 64.975729 
L 244.821876 64.975729 
z
" style="fill:#1f77b4;"/>
   </g>
   <g id="patch_118">
    <path clip-path="url(#p56e43ed2ab)" d="M 246.43905 273.312 
L 248.056224 273.312 
L 248.056224 45.645559 
L 246.43905 45.645559 
z
" style="fill:#1f77b4;"/>
   </g>
   <g id="patch_119">
    <path clip-path="url(#p56e43ed2ab)" d="M 248.056224 273.312 
L 249.673398 273.312 
L 249.673398 65.691661 
L 248.056224 65.691661 
z
" style="fill:#1f77b4;"/>
   </g>
   <g id="patch_120">
    <path clip-path="url(#p56e43ed2ab)" d="M 249.673398 273.312 
L 251.290571 273.312 
L 251.290571 54.236746 
L 249.673398 54.236746 
z
" style="fill:#1f77b4;"/>
   </g>
   <g id="patch_121">
    <path clip-path="url(#p56e43ed2ab)" d="M 251.290571 273.312 
L 252.907745 273.312 
L 252.907745 54.952678 
L 251.290571 54.952678 
z
" style="fill:#1f77b4;"/>
   </g>
   <g id="patch_122">
    <path clip-path="url(#p56e43ed2ab)" d="M 252.907745 273.312 
L 254.524919 273.312 
L 254.524919 60.680136 
L 252.907745 60.680136 
z
" style="fill:#1f77b4;"/>
   </g>
   <g id="patch_123">
    <path clip-path="url(#p56e43ed2ab)" d="M 254.524919 273.312 
L 256.142093 273.312 
L 256.142093 49.941153 
L 254.524919 49.941153 
z
" style="fill:#1f77b4;"/>
   </g>
   <g id="patch_124">
    <path clip-path="url(#p56e43ed2ab)" d="M 256.142093 273.312 
L 257.759267 273.312 
L 257.759267 49.22522 
L 256.142093 49.22522 
z
" style="fill:#1f77b4;"/>
   </g>
   <g id="patch_125">
    <path clip-path="url(#p56e43ed2ab)" d="M 257.759267 273.312 
L 259.376441 273.312 
L 259.376441 62.112 
L 257.759267 62.112 
z
" style="fill:#1f77b4;"/>
   </g>
   <g id="patch_126">
    <path clip-path="url(#p56e43ed2ab)" d="M 259.376441 273.312 
L 260.993614 273.312 
L 260.993614 55.66861 
L 259.376441 55.66861 
z
" style="fill:#1f77b4;"/>
   </g>
   <g id="patch_127">
    <path clip-path="url(#p56e43ed2ab)" d="M 260.993614 273.312 
L 262.610788 273.312 
L 262.610788 68.55539 
L 260.993614 68.55539 
z
" style="fill:#1f77b4;"/>
   </g>
   <g id="patch_128">
    <path clip-path="url(#p56e43ed2ab)" d="M 262.610788 273.312 
L 264.227962 273.312 
L 264.227962 40.634034 
L 262.610788 40.634034 
z
" style="fill:#1f77b4;"/>
   </g>
   <g id="patch_129">
    <path clip-path="url(#p56e43ed2ab)" d="M 264.227962 273.312 
L 265.845136 273.312 
L 265.845136 59.964203 
L 264.227962 59.964203 
z
" style="fill:#1f77b4;"/>
   </g>
   <g id="patch_130">
    <path clip-path="url(#p56e43ed2ab)" d="M 265.845136 273.312 
L 267.46231 273.312 
L 267.46231 85.021831 
L 265.845136 85.021831 
z
" style="fill:#1f77b4;"/>
   </g>
   <g id="patch_131">
    <path clip-path="url(#p56e43ed2ab)" d="M 267.46231 273.312 
L 269.079483 273.312 
L 269.079483 80.726237 
L 267.46231 80.726237 
z
" style="fill:#1f77b4;"/>
   </g>
   <g id="patch_132">
    <path clip-path="url(#p56e43ed2ab)" d="M 269.079483 273.312 
L 270.696657 273.312 
L 270.696657 64.975729 
L 269.079483 64.975729 
z
" style="fill:#1f77b4;"/>
   </g>
   <g id="patch_133">
    <path clip-path="url(#p56e43ed2ab)" d="M 270.696657 273.312 
L 272.313831 273.312 
L 272.313831 78.578441 
L 270.696657 78.578441 
z
" style="fill:#1f77b4;"/>
   </g>
   <g id="patch_134">
    <path clip-path="url(#p56e43ed2ab)" d="M 272.313831 273.312 
L 273.931005 273.312 
L 273.931005 76.430644 
L 272.313831 76.430644 
z
" style="fill:#1f77b4;"/>
   </g>
   <g id="patch_135">
    <path clip-path="url(#p56e43ed2ab)" d="M 273.931005 273.312 
L 275.548179 273.312 
L 275.548179 69.987254 
L 273.931005 69.987254 
z
" style="fill:#1f77b4;"/>
   </g>
   <g id="patch_136">
    <path clip-path="url(#p56e43ed2ab)" d="M 275.548179 273.312 
L 277.165353 273.312 
L 277.165353 76.430644 
L 275.548179 76.430644 
z
" style="fill:#1f77b4;"/>
   </g>
   <g id="patch_137">
    <path clip-path="url(#p56e43ed2ab)" d="M 277.165353 273.312 
L 278.782526 273.312 
L 278.782526 95.044881 
L 277.165353 95.044881 
z
" style="fill:#1f77b4;"/>
   </g>
   <g id="patch_138">
    <path clip-path="url(#p56e43ed2ab)" d="M 278.782526 273.312 
L 280.3997 273.312 
L 280.3997 103.636068 
L 278.782526 103.636068 
z
" style="fill:#1f77b4;"/>
   </g>
   <g id="patch_139">
    <path clip-path="url(#p56e43ed2ab)" d="M 280.3997 273.312 
L 282.016874 273.312 
L 282.016874 87.885559 
L 280.3997 87.885559 
z
" style="fill:#1f77b4;"/>
   </g>
   <g id="patch_140">
    <path clip-path="url(#p56e43ed2ab)" d="M 282.016874 273.312 
L 283.634048 273.312 
L 283.634048 97.192678 
L 282.016874 97.192678 
z
" style="fill:#1f77b4;"/>
   </g>
   <g id="patch_141">
    <path clip-path="url(#p56e43ed2ab)" d="M 283.634048 273.312 
L 285.251222 273.312 
L 285.251222 88.601492 
L 283.634048 88.601492 
z
" style="fill:#1f77b4;"/>
   </g>
   <g id="patch_142">
    <path clip-path="url(#p56e43ed2ab)" d="M 285.251222 273.312 
L 286.868396 273.312 
L 286.868396 99.340475 
L 285.251222 99.340475 
z
" style="fill:#1f77b4;"/>
   </g>
   <g id="patch_143">
    <path clip-path="url(#p56e43ed2ab)" d="M 286.868396 273.312 
L 288.485569 273.312 
L 288.485569 94.328949 
L 286.868396 94.328949 
z
" style="fill:#1f77b4;"/>
   </g>
   <g id="patch_144">
    <path clip-path="url(#p56e43ed2ab)" d="M 288.485569 273.312 
L 290.102743 273.312 
L 290.102743 69.271322 
L 288.485569 69.271322 
z
" style="fill:#1f77b4;"/>
   </g>
   <g id="patch_145">
    <path clip-path="url(#p56e43ed2ab)" d="M 290.102743 273.312 
L 291.719917 273.312 
L 291.719917 64.259797 
L 290.102743 64.259797 
z
" style="fill:#1f77b4;"/>
   </g>
   <g id="patch_146">
    <path clip-path="url(#p56e43ed2ab)" d="M 291.719917 273.312 
L 293.337091 273.312 
L 293.337091 92.897085 
L 291.719917 92.897085 
z
" style="fill:#1f77b4;"/>
   </g>
   <g id="patch_147">
    <path clip-path="url(#p56e43ed2ab)" d="M 293.337091 273.312 
L 294.954265 273.312 
L 294.954265 98.624542 
L 293.337091 98.624542 
z
" style="fill:#1f77b4;"/>
   </g>
   <g id="patch_148">
    <path clip-path="url(#p56e43ed2ab)" d="M 294.954265 273.312 
L 296.571439 273.312 
L 296.571439 126.545898 
L 294.954265 126.545898 
z
" style="fill:#1f77b4;"/>
   </g>
   <g id="patch_149">
    <path clip-path="url(#p56e43ed2ab)" d="M 296.571439 273.312 
L 298.188612 273.312 
L 298.188612 90.033356 
L 296.571439 90.033356 
z
" style="fill:#1f77b4;"/>
   </g>
   <g id="patch_150">
    <path clip-path="url(#p56e43ed2ab)" d="M 298.188612 273.312 
L 299.805786 273.312 
L 299.805786 97.90861 
L 298.188612 97.90861 
z
" style="fill:#1f77b4;"/>
   </g>
   <g id="patch_151">
    <path clip-path="url(#p56e43ed2ab)" d="M 299.805786 273.312 
L 301.42296 273.312 
L 301.42296 103.636068 
L 299.805786 103.636068 
z
" style="fill:#1f77b4;"/>
   </g>
   <g id="patch_152">
    <path clip-path="url(#p56e43ed2ab)" d="M 301.42296 273.312 
L 303.040134 273.312 
L 303.040134 103.636068 
L 301.42296 103.636068 
z
" style="fill:#1f77b4;"/>
   </g>
   <g id="patch_153">
    <path clip-path="url(#p56e43ed2ab)" d="M 303.040134 273.312 
L 304.657308 273.312 
L 304.657308 120.818441 
L 303.040134 120.818441 
z
" style="fill:#1f77b4;"/>
   </g>
   <g id="patch_154">
    <path clip-path="url(#p56e43ed2ab)" d="M 304.657308 273.312 
L 306.274481 273.312 
L 306.274481 118.670644 
L 304.657308 118.670644 
z
" style="fill:#1f77b4;"/>
   </g>
   <g id="patch_155">
    <path clip-path="url(#p56e43ed2ab)" d="M 306.274481 273.312 
L 307.891655 273.312 
L 307.891655 125.829966 
L 306.274481 125.829966 
z
" style="fill:#1f77b4;"/>
   </g>
   <g id="patch_156">
    <path clip-path="url(#p56e43ed2ab)" d="M 307.891655 273.312 
L 309.508829 273.312 
L 309.508829 153.751322 
L 307.891655 153.751322 
z
" style="fill:#1f77b4;"/>
   </g>
   <g id="patch_157">
    <path clip-path="url(#p56e43ed2ab)" d="M 309.508829 273.312 
L 311.126003 273.312 
L 311.126003 129.409627 
L 309.508829 129.409627 
z
" style="fill:#1f77b4;"/>
   </g>
   <g id="patch_158">
    <path clip-path="url(#p56e43ed2ab)" d="M 311.126003 273.312 
L 312.743177 273.312 
L 312.743177 148.739797 
L 311.126003 148.739797 
z
" style="fill:#1f77b4;"/>
   </g>
   <g id="patch_159">
    <path clip-path="url(#p56e43ed2ab)" d="M 312.743177 273.312 
L 314.360351 273.312 
L 314.360351 129.409627 
L 312.743177 129.409627 
z
" style="fill:#1f77b4;"/>
   </g>
   <g id="patch_160">
    <path clip-path="url(#p56e43ed2ab)" d="M 314.360351 273.312 
L 315.977524 273.312 
L 315.977524 122.966237 
L 314.360351 122.966237 
z
" style="fill:#1f77b4;"/>
   </g>
   <g id="patch_161">
    <path clip-path="url(#p56e43ed2ab)" d="M 315.977524 273.312 
L 317.594698 273.312 
L 317.594698 144.444203 
L 315.977524 144.444203 
z
" style="fill:#1f77b4;"/>
   </g>
   <g id="patch_162">
    <path clip-path="url(#p56e43ed2ab)" d="M 317.594698 273.312 
L 319.211872 273.312 
L 319.211872 139.432678 
L 317.594698 139.432678 
z
" style="fill:#1f77b4;"/>
   </g>
   <g id="patch_163">
    <path clip-path="url(#p56e43ed2ab)" d="M 319.211872 273.312 
L 320.829046 273.312 
L 320.829046 159.47878 
L 319.211872 159.47878 
z
" style="fill:#1f77b4;"/>
   </g>
   <g id="patch_164">
    <path clip-path="url(#p56e43ed2ab)" d="M 320.829046 273.312 
L 322.44622 273.312 
L 322.44622 135.137085 
L 320.829046 135.137085 
z
" style="fill:#1f77b4;"/>
   </g>
   <g id="patch_165">
    <path clip-path="url(#p56e43ed2ab)" d="M 322.44622 273.312 
L 324.063394 273.312 
L 324.063394 149.455729 
L 322.44622 149.455729 
z
" style="fill:#1f77b4;"/>
   </g>
   <g id="patch_166">
    <path clip-path="url(#p56e43ed2ab)" d="M 324.063394 273.312 
L 325.680567 273.312 
L 325.680567 148.023864 
L 324.063394 148.023864 
z
" style="fill:#1f77b4;"/>
   </g>
   <g id="patch_167">
    <path clip-path="url(#p56e43ed2ab)" d="M 325.680567 273.312 
L 327.297741 273.312 
L 327.297741 140.14861 
L 325.680567 140.14861 
z
" style="fill:#1f77b4;"/>
   </g>
   <g id="patch_168">
    <path clip-path="url(#p56e43ed2ab)" d="M 327.297741 273.312 
L 328.914915 273.312 
L 328.914915 160.194712 
L 327.297741 160.194712 
z
" style="fill:#1f77b4;"/>
   </g>
   <g id="patch_169">
    <path clip-path="url(#p56e43ed2ab)" d="M 328.914915 273.312 
L 330.532089 273.312 
L 330.532089 155.183186 
L 328.914915 155.183186 
z
" style="fill:#1f77b4;"/>
   </g>
   <g id="patch_170">
    <path clip-path="url(#p56e43ed2ab)" d="M 330.532089 273.312 
L 332.149263 273.312 
L 332.149263 168.069966 
L 330.532089 168.069966 
z
" style="fill:#1f77b4;"/>
   </g>
   <g id="patch_171">
    <path clip-path="url(#p56e43ed2ab)" d="M 332.149263 273.312 
L 333.766436 273.312 
L 333.766436 162.342508 
L 332.149263 162.342508 
z
" style="fill:#1f77b4;"/>
   </g>
   <g id="patch_172">
    <path clip-path="url(#p56e43ed2ab)" d="M 333.766436 273.312 
L 335.38361 273.312 
L 335.38361 185.968271 
L 333.766436 185.968271 
z
" style="fill:#1f77b4;"/>
   </g>
   <g id="patch_173">
    <path clip-path="url(#p56e43ed2ab)" d="M 335.38361 273.312 
L 337.000784 273.312 
L 337.000784 173.081492 
L 335.38361 173.081492 
z
" style="fill:#1f77b4;"/>
   </g>
   <g id="patch_174">
    <path clip-path="url(#p56e43ed2ab)" d="M 337.000784 273.312 
L 338.617958 273.312 
L 338.617958 160.910644 
L 337.000784 160.910644 
z
" style="fill:#1f77b4;"/>
   </g>
   <g id="patch_175">
    <path clip-path="url(#p56e43ed2ab)" d="M 338.617958 273.312 
L 340.235132 273.312 
L 340.235132 177.377085 
L 338.617958 177.377085 
z
" style="fill:#1f77b4;"/>
   </g>
   <g id="patch_176">
    <path clip-path="url(#p56e43ed2ab)" d="M 340.235132 273.312 
L 341.852306 273.312 
L 341.852306 173.797424 
L 340.235132 173.797424 
z
" style="fill:#1f77b4;"/>
   </g>
   <g id="patch_177">
    <path clip-path="url(#p56e43ed2ab)" d="M 341.852306 273.312 
L 343.469479 273.312 
L 343.469479 188.832 
L 341.852306 188.832 
z
" style="fill:#1f77b4;"/>
   </g>
   <g id="patch_178">
    <path clip-path="url(#p56e43ed2ab)" d="M 343.469479 273.312 
L 345.086653 273.312 
L 345.086653 181.672678 
L 343.469479 181.672678 
z
" style="fill:#1f77b4;"/>
   </g>
   <g id="patch_179">
    <path clip-path="url(#p56e43ed2ab)" d="M 345.086653 273.312 
L 346.703827 273.312 
L 346.703827 187.400136 
L 345.086653 187.400136 
z
" style="fill:#1f77b4;"/>
   </g>
   <g id="patch_180">
    <path clip-path="url(#p56e43ed2ab)" d="M 346.703827 273.312 
L 348.321001 273.312 
L 348.321001 201.002847 
L 346.703827 201.002847 
z
" style="fill:#1f77b4;"/>
   </g>
   <g id="patch_181">
    <path clip-path="url(#p56e43ed2ab)" d="M 348.321001 273.312 
L 349.938175 273.312 
L 349.938175 205.298441 
L 348.321001 205.298441 
z
" style="fill:#1f77b4;"/>
   </g>
   <g id="patch_182">
    <path clip-path="url(#p56e43ed2ab)" d="M 349.938175 273.312 
L 351.555349 273.312 
L 351.555349 204.582508 
L 349.938175 204.582508 
z
" style="fill:#1f77b4;"/>
   </g>
   <g id="patch_183">
    <path clip-path="url(#p56e43ed2ab)" d="M 351.555349 273.312 
L 353.172522 273.312 
L 353.172522 201.71878 
L 351.555349 201.71878 
z
" style="fill:#1f77b4;"/>
   </g>
   <g id="patch_184">
    <path clip-path="url(#p56e43ed2ab)" d="M 353.172522 273.312 
L 354.789696 273.312 
L 354.789696 204.582508 
L 353.172522 204.582508 
z
" style="fill:#1f77b4;"/>
   </g>
   <g id="patch_185">
    <path clip-path="url(#p56e43ed2ab)" d="M 354.789696 273.312 
L 356.40687 273.312 
L 356.40687 219.617085 
L 354.789696 219.617085 
z
" style="fill:#1f77b4;"/>
   </g>
   <g id="patch_186">
    <path clip-path="url(#p56e43ed2ab)" d="M 356.40687 273.312 
L 358.024044 273.312 
L 358.024044 228.924203 
L 356.40687 228.924203 
z
" style="fill:#1f77b4;"/>
   </g>
   <g id="patch_187">
    <path clip-path="url(#p56e43ed2ab)" d="M 358.024044 273.312 
L 359.641218 273.312 
L 359.641218 231.787932 
L 358.024044 231.787932 
z
" style="fill:#1f77b4;"/>
   </g>
   <g id="patch_188">
    <path clip-path="url(#p56e43ed2ab)" d="M 359.641218 273.312 
L 361.258392 273.312 
L 361.258392 218.18522 
L 359.641218 218.18522 
z
" style="fill:#1f77b4;"/>
   </g>
   <g id="patch_189">
    <path clip-path="url(#p56e43ed2ab)" d="M 361.258392 273.312 
L 362.875565 273.312 
L 362.875565 223.196746 
L 361.258392 223.196746 
z
" style="fill:#1f77b4;"/>
   </g>
   <g id="patch_190">
    <path clip-path="url(#p56e43ed2ab)" d="M 362.875565 273.312 
L 364.492739 273.312 
L 364.492739 221.048949 
L 362.875565 221.048949 
z
" style="fill:#1f77b4;"/>
   </g>
   <g id="patch_191">
    <path clip-path="url(#p56e43ed2ab)" d="M 364.492739 273.312 
L 366.109913 273.312 
L 366.109913 221.764881 
L 364.492739 221.764881 
z
" style="fill:#1f77b4;"/>
   </g>
   <g id="patch_192">
    <path clip-path="url(#p56e43ed2ab)" d="M 366.109913 273.312 
L 367.727087 273.312 
L 367.727087 236.083525 
L 366.109913 236.083525 
z
" style="fill:#1f77b4;"/>
   </g>
   <g id="patch_193">
    <path clip-path="url(#p56e43ed2ab)" d="M 367.727087 273.312 
L 369.344261 273.312 
L 369.344261 251.834034 
L 367.727087 251.834034 
z
" style="fill:#1f77b4;"/>
   </g>
   <g id="patch_194">
    <path clip-path="url(#p56e43ed2ab)" d="M 369.344261 273.312 
L 370.961434 273.312 
L 370.961434 238.231322 
L 369.344261 238.231322 
z
" style="fill:#1f77b4;"/>
   </g>
   <g id="patch_195">
    <path clip-path="url(#p56e43ed2ab)" d="M 370.961434 273.312 
L 372.578608 273.312 
L 372.578608 243.95878 
L 370.961434 243.95878 
z
" style="fill:#1f77b4;"/>
   </g>
   <g id="patch_196">
    <path clip-path="url(#p56e43ed2ab)" d="M 372.578608 273.312 
L 374.195782 273.312 
L 374.195782 251.834034 
L 372.578608 251.834034 
z
" style="fill:#1f77b4;"/>
   </g>
   <g id="patch_197">
    <path clip-path="url(#p56e43ed2ab)" d="M 374.195782 273.312 
L 375.812956 273.312 
L 375.812956 251.834034 
L 374.195782 251.834034 
z
" style="fill:#1f77b4;"/>
   </g>
   <g id="patch_198">
    <path clip-path="url(#p56e43ed2ab)" d="M 375.812956 273.312 
L 377.43013 273.312 
L 377.43013 253.981831 
L 375.812956 253.981831 
z
" style="fill:#1f77b4;"/>
   </g>
   <g id="patch_199">
    <path clip-path="url(#p56e43ed2ab)" d="M 377.43013 273.312 
L 379.047304 273.312 
L 379.047304 264.720814 
L 377.43013 264.720814 
z
" style="fill:#1f77b4;"/>
   </g>
   <g id="patch_200">
    <path clip-path="url(#p56e43ed2ab)" d="M 379.047304 273.312 
L 380.664477 273.312 
L 380.664477 261.141153 
L 379.047304 261.141153 
z
" style="fill:#1f77b4;"/>
   </g>
   <g id="patch_201">
    <path clip-path="url(#p56e43ed2ab)" d="M 380.664477 273.312 
L 382.281651 273.312 
L 382.281651 268.300475 
L 380.664477 268.300475 
z
" style="fill:#1f77b4;"/>
   </g>
   <g id="patch_202">
    <path clip-path="url(#p56e43ed2ab)" d="M 382.281651 273.312 
L 383.898825 273.312 
L 383.898825 271.880136 
L 382.281651 271.880136 
z
" style="fill:#1f77b4;"/>
   </g>
   <g id="matplotlib.axis_1">
    <g id="xtick_1">
     <g id="line2d_1">
      <defs>
       <path d="M 0 0 
L 0 3.5 
" id="m8cc7126e2d" style="stroke:#000000;stroke-width:0.8;"/>
      </defs>
      <g>
       <use style="stroke:#000000;stroke-width:0.8;" x="60.013977" xlink:href="#m8cc7126e2d" y="273.312"/>
      </g>
     </g>
     <g id="text_1">
      <!-- 0.0 -->
      <g transform="translate(52.062415 287.910437)scale(0.1 -0.1)">
       <defs>
        <path d="M 2034 4250 
Q 1547 4250 1301 3770 
Q 1056 3291 1056 2328 
Q 1056 1369 1301 889 
Q 1547 409 2034 409 
Q 2525 409 2770 889 
Q 3016 1369 3016 2328 
Q 3016 3291 2770 3770 
Q 2525 4250 2034 4250 
z
M 2034 4750 
Q 2819 4750 3233 4129 
Q 3647 3509 3647 2328 
Q 3647 1150 3233 529 
Q 2819 -91 2034 -91 
Q 1250 -91 836 529 
Q 422 1150 422 2328 
Q 422 3509 836 4129 
Q 1250 4750 2034 4750 
z
" id="DejaVuSans-30" transform="scale(0.015625)"/>
        <path d="M 684 794 
L 1344 794 
L 1344 0 
L 684 0 
L 684 794 
z
" id="DejaVuSans-2e" transform="scale(0.015625)"/>
       </defs>
       <use xlink:href="#DejaVuSans-30"/>
       <use x="63.623047" xlink:href="#DejaVuSans-2e"/>
       <use x="95.410156" xlink:href="#DejaVuSans-30"/>
      </g>
     </g>
    </g>
    <g id="xtick_2">
     <g id="line2d_2">
      <g>
       <use style="stroke:#000000;stroke-width:0.8;" x="101.350278" xlink:href="#m8cc7126e2d" y="273.312"/>
      </g>
     </g>
     <g id="text_2">
      <!-- 0.2 -->
      <g transform="translate(93.398715 287.910437)scale(0.1 -0.1)">
       <defs>
        <path d="M 1228 531 
L 3431 531 
L 3431 0 
L 469 0 
L 469 531 
Q 828 903 1448 1529 
Q 2069 2156 2228 2338 
Q 2531 2678 2651 2914 
Q 2772 3150 2772 3378 
Q 2772 3750 2511 3984 
Q 2250 4219 1831 4219 
Q 1534 4219 1204 4116 
Q 875 4013 500 3803 
L 500 4441 
Q 881 4594 1212 4672 
Q 1544 4750 1819 4750 
Q 2544 4750 2975 4387 
Q 3406 4025 3406 3419 
Q 3406 3131 3298 2873 
Q 3191 2616 2906 2266 
Q 2828 2175 2409 1742 
Q 1991 1309 1228 531 
z
" id="DejaVuSans-32" transform="scale(0.015625)"/>
       </defs>
       <use xlink:href="#DejaVuSans-30"/>
       <use x="63.623047" xlink:href="#DejaVuSans-2e"/>
       <use x="95.410156" xlink:href="#DejaVuSans-32"/>
      </g>
     </g>
    </g>
    <g id="xtick_3">
     <g id="line2d_3">
      <g>
       <use style="stroke:#000000;stroke-width:0.8;" x="142.686578" xlink:href="#m8cc7126e2d" y="273.312"/>
      </g>
     </g>
     <g id="text_3">
      <!-- 0.4 -->
      <g transform="translate(134.735016 287.910437)scale(0.1 -0.1)">
       <defs>
        <path d="M 2419 4116 
L 825 1625 
L 2419 1625 
L 2419 4116 
z
M 2253 4666 
L 3047 4666 
L 3047 1625 
L 3713 1625 
L 3713 1100 
L 3047 1100 
L 3047 0 
L 2419 0 
L 2419 1100 
L 313 1100 
L 313 1709 
L 2253 4666 
z
" id="DejaVuSans-34" transform="scale(0.015625)"/>
       </defs>
       <use xlink:href="#DejaVuSans-30"/>
       <use x="63.623047" xlink:href="#DejaVuSans-2e"/>
       <use x="95.410156" xlink:href="#DejaVuSans-34"/>
      </g>
     </g>
    </g>
    <g id="xtick_4">
     <g id="line2d_4">
      <g>
       <use style="stroke:#000000;stroke-width:0.8;" x="184.022879" xlink:href="#m8cc7126e2d" y="273.312"/>
      </g>
     </g>
     <g id="text_4">
      <!-- 0.6 -->
      <g transform="translate(176.071316 287.910437)scale(0.1 -0.1)">
       <defs>
        <path d="M 2113 2584 
Q 1688 2584 1439 2293 
Q 1191 2003 1191 1497 
Q 1191 994 1439 701 
Q 1688 409 2113 409 
Q 2538 409 2786 701 
Q 3034 994 3034 1497 
Q 3034 2003 2786 2293 
Q 2538 2584 2113 2584 
z
M 3366 4563 
L 3366 3988 
Q 3128 4100 2886 4159 
Q 2644 4219 2406 4219 
Q 1781 4219 1451 3797 
Q 1122 3375 1075 2522 
Q 1259 2794 1537 2939 
Q 1816 3084 2150 3084 
Q 2853 3084 3261 2657 
Q 3669 2231 3669 1497 
Q 3669 778 3244 343 
Q 2819 -91 2113 -91 
Q 1303 -91 875 529 
Q 447 1150 447 2328 
Q 447 3434 972 4092 
Q 1497 4750 2381 4750 
Q 2619 4750 2861 4703 
Q 3103 4656 3366 4563 
z
" id="DejaVuSans-36" transform="scale(0.015625)"/>
       </defs>
       <use xlink:href="#DejaVuSans-30"/>
       <use x="63.623047" xlink:href="#DejaVuSans-2e"/>
       <use x="95.410156" xlink:href="#DejaVuSans-36"/>
      </g>
     </g>
    </g>
    <g id="xtick_5">
     <g id="line2d_5">
      <g>
       <use style="stroke:#000000;stroke-width:0.8;" x="225.35918" xlink:href="#m8cc7126e2d" y="273.312"/>
      </g>
     </g>
     <g id="text_5">
      <!-- 0.8 -->
      <g transform="translate(217.407617 287.910437)scale(0.1 -0.1)">
       <defs>
        <path d="M 2034 2216 
Q 1584 2216 1326 1975 
Q 1069 1734 1069 1313 
Q 1069 891 1326 650 
Q 1584 409 2034 409 
Q 2484 409 2743 651 
Q 3003 894 3003 1313 
Q 3003 1734 2745 1975 
Q 2488 2216 2034 2216 
z
M 1403 2484 
Q 997 2584 770 2862 
Q 544 3141 544 3541 
Q 544 4100 942 4425 
Q 1341 4750 2034 4750 
Q 2731 4750 3128 4425 
Q 3525 4100 3525 3541 
Q 3525 3141 3298 2862 
Q 3072 2584 2669 2484 
Q 3125 2378 3379 2068 
Q 3634 1759 3634 1313 
Q 3634 634 3220 271 
Q 2806 -91 2034 -91 
Q 1263 -91 848 271 
Q 434 634 434 1313 
Q 434 1759 690 2068 
Q 947 2378 1403 2484 
z
M 1172 3481 
Q 1172 3119 1398 2916 
Q 1625 2713 2034 2713 
Q 2441 2713 2670 2916 
Q 2900 3119 2900 3481 
Q 2900 3844 2670 4047 
Q 2441 4250 2034 4250 
Q 1625 4250 1398 4047 
Q 1172 3844 1172 3481 
z
" id="DejaVuSans-38" transform="scale(0.015625)"/>
       </defs>
       <use xlink:href="#DejaVuSans-30"/>
       <use x="63.623047" xlink:href="#DejaVuSans-2e"/>
       <use x="95.410156" xlink:href="#DejaVuSans-38"/>
      </g>
     </g>
    </g>
    <g id="xtick_6">
     <g id="line2d_6">
      <g>
       <use style="stroke:#000000;stroke-width:0.8;" x="266.69548" xlink:href="#m8cc7126e2d" y="273.312"/>
      </g>
     </g>
     <g id="text_6">
      <!-- 1.0 -->
      <g transform="translate(258.743918 287.910437)scale(0.1 -0.1)">
       <defs>
        <path d="M 794 531 
L 1825 531 
L 1825 4091 
L 703 3866 
L 703 4441 
L 1819 4666 
L 2450 4666 
L 2450 531 
L 3481 531 
L 3481 0 
L 794 0 
L 794 531 
z
" id="DejaVuSans-31" transform="scale(0.015625)"/>
       </defs>
       <use xlink:href="#DejaVuSans-31"/>
       <use x="63.623047" xlink:href="#DejaVuSans-2e"/>
       <use x="95.410156" xlink:href="#DejaVuSans-30"/>
      </g>
     </g>
    </g>
    <g id="xtick_7">
     <g id="line2d_7">
      <g>
       <use style="stroke:#000000;stroke-width:0.8;" x="308.031781" xlink:href="#m8cc7126e2d" y="273.312"/>
      </g>
     </g>
     <g id="text_7">
      <!-- 1.2 -->
      <g transform="translate(300.080218 287.910437)scale(0.1 -0.1)">
       <use xlink:href="#DejaVuSans-31"/>
       <use x="63.623047" xlink:href="#DejaVuSans-2e"/>
       <use x="95.410156" xlink:href="#DejaVuSans-32"/>
      </g>
     </g>
    </g>
    <g id="xtick_8">
     <g id="line2d_8">
      <g>
       <use style="stroke:#000000;stroke-width:0.8;" x="349.368081" xlink:href="#m8cc7126e2d" y="273.312"/>
      </g>
     </g>
     <g id="text_8">
      <!-- 1.4 -->
      <g transform="translate(341.416519 287.910437)scale(0.1 -0.1)">
       <use xlink:href="#DejaVuSans-31"/>
       <use x="63.623047" xlink:href="#DejaVuSans-2e"/>
       <use x="95.410156" xlink:href="#DejaVuSans-34"/>
      </g>
     </g>
    </g>
    <g id="xtick_9">
     <g id="line2d_9">
      <g>
       <use style="stroke:#000000;stroke-width:0.8;" x="390.704382" xlink:href="#m8cc7126e2d" y="273.312"/>
      </g>
     </g>
     <g id="text_9">
      <!-- 1.6 -->
      <g transform="translate(382.752819 287.910437)scale(0.1 -0.1)">
       <use xlink:href="#DejaVuSans-31"/>
       <use x="63.623047" xlink:href="#DejaVuSans-2e"/>
       <use x="95.410156" xlink:href="#DejaVuSans-36"/>
      </g>
     </g>
    </g>
    <g id="text_10">
     <!-- Angle with normal (rad) -->
     <g transform="translate(163.023281 301.588562)scale(0.1 -0.1)">
      <defs>
       <path d="M 2188 4044 
L 1331 1722 
L 3047 1722 
L 2188 4044 
z
M 1831 4666 
L 2547 4666 
L 4325 0 
L 3669 0 
L 3244 1197 
L 1141 1197 
L 716 0 
L 50 0 
L 1831 4666 
z
" id="DejaVuSans-41" transform="scale(0.015625)"/>
       <path d="M 3513 2113 
L 3513 0 
L 2938 0 
L 2938 2094 
Q 2938 2591 2744 2837 
Q 2550 3084 2163 3084 
Q 1697 3084 1428 2787 
Q 1159 2491 1159 1978 
L 1159 0 
L 581 0 
L 581 3500 
L 1159 3500 
L 1159 2956 
Q 1366 3272 1645 3428 
Q 1925 3584 2291 3584 
Q 2894 3584 3203 3211 
Q 3513 2838 3513 2113 
z
" id="DejaVuSans-6e" transform="scale(0.015625)"/>
       <path d="M 2906 1791 
Q 2906 2416 2648 2759 
Q 2391 3103 1925 3103 
Q 1463 3103 1205 2759 
Q 947 2416 947 1791 
Q 947 1169 1205 825 
Q 1463 481 1925 481 
Q 2391 481 2648 825 
Q 2906 1169 2906 1791 
z
M 3481 434 
Q 3481 -459 3084 -895 
Q 2688 -1331 1869 -1331 
Q 1566 -1331 1297 -1286 
Q 1028 -1241 775 -1147 
L 775 -588 
Q 1028 -725 1275 -790 
Q 1522 -856 1778 -856 
Q 2344 -856 2625 -561 
Q 2906 -266 2906 331 
L 2906 616 
Q 2728 306 2450 153 
Q 2172 0 1784 0 
Q 1141 0 747 490 
Q 353 981 353 1791 
Q 353 2603 747 3093 
Q 1141 3584 1784 3584 
Q 2172 3584 2450 3431 
Q 2728 3278 2906 2969 
L 2906 3500 
L 3481 3500 
L 3481 434 
z
" id="DejaVuSans-67" transform="scale(0.015625)"/>
       <path d="M 603 4863 
L 1178 4863 
L 1178 0 
L 603 0 
L 603 4863 
z
" id="DejaVuSans-6c" transform="scale(0.015625)"/>
       <path d="M 3597 1894 
L 3597 1613 
L 953 1613 
Q 991 1019 1311 708 
Q 1631 397 2203 397 
Q 2534 397 2845 478 
Q 3156 559 3463 722 
L 3463 178 
Q 3153 47 2828 -22 
Q 2503 -91 2169 -91 
Q 1331 -91 842 396 
Q 353 884 353 1716 
Q 353 2575 817 3079 
Q 1281 3584 2069 3584 
Q 2775 3584 3186 3129 
Q 3597 2675 3597 1894 
z
M 3022 2063 
Q 3016 2534 2758 2815 
Q 2500 3097 2075 3097 
Q 1594 3097 1305 2825 
Q 1016 2553 972 2059 
L 3022 2063 
z
" id="DejaVuSans-65" transform="scale(0.015625)"/>
       <path id="DejaVuSans-20" transform="scale(0.015625)"/>
       <path d="M 269 3500 
L 844 3500 
L 1563 769 
L 2278 3500 
L 2956 3500 
L 3675 769 
L 4391 3500 
L 4966 3500 
L 4050 0 
L 3372 0 
L 2619 2869 
L 1863 0 
L 1184 0 
L 269 3500 
z
" id="DejaVuSans-77" transform="scale(0.015625)"/>
       <path d="M 603 3500 
L 1178 3500 
L 1178 0 
L 603 0 
L 603 3500 
z
M 603 4863 
L 1178 4863 
L 1178 4134 
L 603 4134 
L 603 4863 
z
" id="DejaVuSans-69" transform="scale(0.015625)"/>
       <path d="M 1172 4494 
L 1172 3500 
L 2356 3500 
L 2356 3053 
L 1172 3053 
L 1172 1153 
Q 1172 725 1289 603 
Q 1406 481 1766 481 
L 2356 481 
L 2356 0 
L 1766 0 
Q 1100 0 847 248 
Q 594 497 594 1153 
L 594 3053 
L 172 3053 
L 172 3500 
L 594 3500 
L 594 4494 
L 1172 4494 
z
" id="DejaVuSans-74" transform="scale(0.015625)"/>
       <path d="M 3513 2113 
L 3513 0 
L 2938 0 
L 2938 2094 
Q 2938 2591 2744 2837 
Q 2550 3084 2163 3084 
Q 1697 3084 1428 2787 
Q 1159 2491 1159 1978 
L 1159 0 
L 581 0 
L 581 4863 
L 1159 4863 
L 1159 2956 
Q 1366 3272 1645 3428 
Q 1925 3584 2291 3584 
Q 2894 3584 3203 3211 
Q 3513 2838 3513 2113 
z
" id="DejaVuSans-68" transform="scale(0.015625)"/>
       <path d="M 1959 3097 
Q 1497 3097 1228 2736 
Q 959 2375 959 1747 
Q 959 1119 1226 758 
Q 1494 397 1959 397 
Q 2419 397 2687 759 
Q 2956 1122 2956 1747 
Q 2956 2369 2687 2733 
Q 2419 3097 1959 3097 
z
M 1959 3584 
Q 2709 3584 3137 3096 
Q 3566 2609 3566 1747 
Q 3566 888 3137 398 
Q 2709 -91 1959 -91 
Q 1206 -91 779 398 
Q 353 888 353 1747 
Q 353 2609 779 3096 
Q 1206 3584 1959 3584 
z
" id="DejaVuSans-6f" transform="scale(0.015625)"/>
       <path d="M 2631 2963 
Q 2534 3019 2420 3045 
Q 2306 3072 2169 3072 
Q 1681 3072 1420 2755 
Q 1159 2438 1159 1844 
L 1159 0 
L 581 0 
L 581 3500 
L 1159 3500 
L 1159 2956 
Q 1341 3275 1631 3429 
Q 1922 3584 2338 3584 
Q 2397 3584 2469 3576 
Q 2541 3569 2628 3553 
L 2631 2963 
z
" id="DejaVuSans-72" transform="scale(0.015625)"/>
       <path d="M 3328 2828 
Q 3544 3216 3844 3400 
Q 4144 3584 4550 3584 
Q 5097 3584 5394 3201 
Q 5691 2819 5691 2113 
L 5691 0 
L 5113 0 
L 5113 2094 
Q 5113 2597 4934 2840 
Q 4756 3084 4391 3084 
Q 3944 3084 3684 2787 
Q 3425 2491 3425 1978 
L 3425 0 
L 2847 0 
L 2847 2094 
Q 2847 2600 2669 2842 
Q 2491 3084 2119 3084 
Q 1678 3084 1418 2786 
Q 1159 2488 1159 1978 
L 1159 0 
L 581 0 
L 581 3500 
L 1159 3500 
L 1159 2956 
Q 1356 3278 1631 3431 
Q 1906 3584 2284 3584 
Q 2666 3584 2933 3390 
Q 3200 3197 3328 2828 
z
" id="DejaVuSans-6d" transform="scale(0.015625)"/>
       <path d="M 2194 1759 
Q 1497 1759 1228 1600 
Q 959 1441 959 1056 
Q 959 750 1161 570 
Q 1363 391 1709 391 
Q 2188 391 2477 730 
Q 2766 1069 2766 1631 
L 2766 1759 
L 2194 1759 
z
M 3341 1997 
L 3341 0 
L 2766 0 
L 2766 531 
Q 2569 213 2275 61 
Q 1981 -91 1556 -91 
Q 1019 -91 701 211 
Q 384 513 384 1019 
Q 384 1609 779 1909 
Q 1175 2209 1959 2209 
L 2766 2209 
L 2766 2266 
Q 2766 2663 2505 2880 
Q 2244 3097 1772 3097 
Q 1472 3097 1187 3025 
Q 903 2953 641 2809 
L 641 3341 
Q 956 3463 1253 3523 
Q 1550 3584 1831 3584 
Q 2591 3584 2966 3190 
Q 3341 2797 3341 1997 
z
" id="DejaVuSans-61" transform="scale(0.015625)"/>
       <path d="M 1984 4856 
Q 1566 4138 1362 3434 
Q 1159 2731 1159 2009 
Q 1159 1288 1364 580 
Q 1569 -128 1984 -844 
L 1484 -844 
Q 1016 -109 783 600 
Q 550 1309 550 2009 
Q 550 2706 781 3412 
Q 1013 4119 1484 4856 
L 1984 4856 
z
" id="DejaVuSans-28" transform="scale(0.015625)"/>
       <path d="M 2906 2969 
L 2906 4863 
L 3481 4863 
L 3481 0 
L 2906 0 
L 2906 525 
Q 2725 213 2448 61 
Q 2172 -91 1784 -91 
Q 1150 -91 751 415 
Q 353 922 353 1747 
Q 353 2572 751 3078 
Q 1150 3584 1784 3584 
Q 2172 3584 2448 3432 
Q 2725 3281 2906 2969 
z
M 947 1747 
Q 947 1113 1208 752 
Q 1469 391 1925 391 
Q 2381 391 2643 752 
Q 2906 1113 2906 1747 
Q 2906 2381 2643 2742 
Q 2381 3103 1925 3103 
Q 1469 3103 1208 2742 
Q 947 2381 947 1747 
z
" id="DejaVuSans-64" transform="scale(0.015625)"/>
       <path d="M 513 4856 
L 1013 4856 
Q 1481 4119 1714 3412 
Q 1947 2706 1947 2009 
Q 1947 1309 1714 600 
Q 1481 -109 1013 -844 
L 513 -844 
Q 928 -128 1133 580 
Q 1338 1288 1338 2009 
Q 1338 2731 1133 3434 
Q 928 4138 513 4856 
z
" id="DejaVuSans-29" transform="scale(0.015625)"/>
      </defs>
      <use xlink:href="#DejaVuSans-41"/>
      <use x="68.408203" xlink:href="#DejaVuSans-6e"/>
      <use x="131.787109" xlink:href="#DejaVuSans-67"/>
      <use x="195.263672" xlink:href="#DejaVuSans-6c"/>
      <use x="223.046875" xlink:href="#DejaVuSans-65"/>
      <use x="284.570312" xlink:href="#DejaVuSans-20"/>
      <use x="316.357422" xlink:href="#DejaVuSans-77"/>
      <use x="398.144531" xlink:href="#DejaVuSans-69"/>
      <use x="425.927734" xlink:href="#DejaVuSans-74"/>
      <use x="465.136719" xlink:href="#DejaVuSans-68"/>
      <use x="528.515625" xlink:href="#DejaVuSans-20"/>
      <use x="560.302734" xlink:href="#DejaVuSans-6e"/>
      <use x="623.681641" xlink:href="#DejaVuSans-6f"/>
      <use x="684.863281" xlink:href="#DejaVuSans-72"/>
      <use x="724.226562" xlink:href="#DejaVuSans-6d"/>
      <use x="821.638672" xlink:href="#DejaVuSans-61"/>
      <use x="882.917969" xlink:href="#DejaVuSans-6c"/>
      <use x="910.701172" xlink:href="#DejaVuSans-20"/>
      <use x="942.488281" xlink:href="#DejaVuSans-28"/>
      <use x="981.501953" xlink:href="#DejaVuSans-72"/>
      <use x="1022.615234" xlink:href="#DejaVuSans-61"/>
      <use x="1083.894531" xlink:href="#DejaVuSans-64"/>
      <use x="1147.371094" xlink:href="#DejaVuSans-29"/>
     </g>
    </g>
   </g>
   <g id="matplotlib.axis_2">
    <g id="ytick_1">
     <g id="line2d_10">
      <defs>
       <path d="M 0 0 
L -3.5 0 
" id="ma73216a09c" style="stroke:#000000;stroke-width:0.8;"/>
      </defs>
      <g>
       <use style="stroke:#000000;stroke-width:0.8;" x="43.78125" xlink:href="#ma73216a09c" y="273.312"/>
      </g>
     </g>
     <g id="text_11">
      <!-- 0.0 -->
      <g transform="translate(20.878125 277.111219)scale(0.1 -0.1)">
       <use xlink:href="#DejaVuSans-30"/>
       <use x="63.623047" xlink:href="#DejaVuSans-2e"/>
       <use x="95.410156" xlink:href="#DejaVuSans-30"/>
      </g>
     </g>
    </g>
    <g id="ytick_2">
     <g id="line2d_11">
      <g>
       <use style="stroke:#000000;stroke-width:0.8;" x="43.78125" xlink:href="#ma73216a09c" y="228.497663"/>
      </g>
     </g>
     <g id="text_12">
      <!-- 0.2 -->
      <g transform="translate(20.878125 232.296882)scale(0.1 -0.1)">
       <use xlink:href="#DejaVuSans-30"/>
       <use x="63.623047" xlink:href="#DejaVuSans-2e"/>
       <use x="95.410156" xlink:href="#DejaVuSans-32"/>
      </g>
     </g>
    </g>
    <g id="ytick_3">
     <g id="line2d_12">
      <g>
       <use style="stroke:#000000;stroke-width:0.8;" x="43.78125" xlink:href="#ma73216a09c" y="183.683326"/>
      </g>
     </g>
     <g id="text_13">
      <!-- 0.4 -->
      <g transform="translate(20.878125 187.482544)scale(0.1 -0.1)">
       <use xlink:href="#DejaVuSans-30"/>
       <use x="63.623047" xlink:href="#DejaVuSans-2e"/>
       <use x="95.410156" xlink:href="#DejaVuSans-34"/>
      </g>
     </g>
    </g>
    <g id="ytick_4">
     <g id="line2d_13">
      <g>
       <use style="stroke:#000000;stroke-width:0.8;" x="43.78125" xlink:href="#ma73216a09c" y="138.868988"/>
      </g>
     </g>
     <g id="text_14">
      <!-- 0.6 -->
      <g transform="translate(20.878125 142.668207)scale(0.1 -0.1)">
       <use xlink:href="#DejaVuSans-30"/>
       <use x="63.623047" xlink:href="#DejaVuSans-2e"/>
       <use x="95.410156" xlink:href="#DejaVuSans-36"/>
      </g>
     </g>
    </g>
    <g id="ytick_5">
     <g id="line2d_14">
      <g>
       <use style="stroke:#000000;stroke-width:0.8;" x="43.78125" xlink:href="#ma73216a09c" y="94.054651"/>
      </g>
     </g>
     <g id="text_15">
      <!-- 0.8 -->
      <g transform="translate(20.878125 97.85387)scale(0.1 -0.1)">
       <use xlink:href="#DejaVuSans-30"/>
       <use x="63.623047" xlink:href="#DejaVuSans-2e"/>
       <use x="95.410156" xlink:href="#DejaVuSans-38"/>
      </g>
     </g>
    </g>
    <g id="ytick_6">
     <g id="line2d_15">
      <g>
       <use style="stroke:#000000;stroke-width:0.8;" x="43.78125" xlink:href="#ma73216a09c" y="49.240314"/>
      </g>
     </g>
     <g id="text_16">
      <!-- 1.0 -->
      <g transform="translate(20.878125 53.039533)scale(0.1 -0.1)">
       <use xlink:href="#DejaVuSans-31"/>
       <use x="63.623047" xlink:href="#DejaVuSans-2e"/>
       <use x="95.410156" xlink:href="#DejaVuSans-30"/>
      </g>
     </g>
    </g>
    <g id="text_17">
     <!-- Probability density -->
     <g transform="translate(14.798438 186.606781)rotate(-90)scale(0.1 -0.1)">
      <defs>
       <path d="M 1259 4147 
L 1259 2394 
L 2053 2394 
Q 2494 2394 2734 2622 
Q 2975 2850 2975 3272 
Q 2975 3691 2734 3919 
Q 2494 4147 2053 4147 
L 1259 4147 
z
M 628 4666 
L 2053 4666 
Q 2838 4666 3239 4311 
Q 3641 3956 3641 3272 
Q 3641 2581 3239 2228 
Q 2838 1875 2053 1875 
L 1259 1875 
L 1259 0 
L 628 0 
L 628 4666 
z
" id="DejaVuSans-50" transform="scale(0.015625)"/>
       <path d="M 3116 1747 
Q 3116 2381 2855 2742 
Q 2594 3103 2138 3103 
Q 1681 3103 1420 2742 
Q 1159 2381 1159 1747 
Q 1159 1113 1420 752 
Q 1681 391 2138 391 
Q 2594 391 2855 752 
Q 3116 1113 3116 1747 
z
M 1159 2969 
Q 1341 3281 1617 3432 
Q 1894 3584 2278 3584 
Q 2916 3584 3314 3078 
Q 3713 2572 3713 1747 
Q 3713 922 3314 415 
Q 2916 -91 2278 -91 
Q 1894 -91 1617 61 
Q 1341 213 1159 525 
L 1159 0 
L 581 0 
L 581 4863 
L 1159 4863 
L 1159 2969 
z
" id="DejaVuSans-62" transform="scale(0.015625)"/>
       <path d="M 2059 -325 
Q 1816 -950 1584 -1140 
Q 1353 -1331 966 -1331 
L 506 -1331 
L 506 -850 
L 844 -850 
Q 1081 -850 1212 -737 
Q 1344 -625 1503 -206 
L 1606 56 
L 191 3500 
L 800 3500 
L 1894 763 
L 2988 3500 
L 3597 3500 
L 2059 -325 
z
" id="DejaVuSans-79" transform="scale(0.015625)"/>
       <path d="M 2834 3397 
L 2834 2853 
Q 2591 2978 2328 3040 
Q 2066 3103 1784 3103 
Q 1356 3103 1142 2972 
Q 928 2841 928 2578 
Q 928 2378 1081 2264 
Q 1234 2150 1697 2047 
L 1894 2003 
Q 2506 1872 2764 1633 
Q 3022 1394 3022 966 
Q 3022 478 2636 193 
Q 2250 -91 1575 -91 
Q 1294 -91 989 -36 
Q 684 19 347 128 
L 347 722 
Q 666 556 975 473 
Q 1284 391 1588 391 
Q 1994 391 2212 530 
Q 2431 669 2431 922 
Q 2431 1156 2273 1281 
Q 2116 1406 1581 1522 
L 1381 1569 
Q 847 1681 609 1914 
Q 372 2147 372 2553 
Q 372 3047 722 3315 
Q 1072 3584 1716 3584 
Q 2034 3584 2315 3537 
Q 2597 3491 2834 3397 
z
" id="DejaVuSans-73" transform="scale(0.015625)"/>
      </defs>
      <use xlink:href="#DejaVuSans-50"/>
      <use x="58.552734" xlink:href="#DejaVuSans-72"/>
      <use x="97.416016" xlink:href="#DejaVuSans-6f"/>
      <use x="158.597656" xlink:href="#DejaVuSans-62"/>
      <use x="222.074219" xlink:href="#DejaVuSans-61"/>
      <use x="283.353516" xlink:href="#DejaVuSans-62"/>
      <use x="346.830078" xlink:href="#DejaVuSans-69"/>
      <use x="374.613281" xlink:href="#DejaVuSans-6c"/>
      <use x="402.396484" xlink:href="#DejaVuSans-69"/>
      <use x="430.179688" xlink:href="#DejaVuSans-74"/>
      <use x="469.388672" xlink:href="#DejaVuSans-79"/>
      <use x="528.568359" xlink:href="#DejaVuSans-20"/>
      <use x="560.355469" xlink:href="#DejaVuSans-64"/>
      <use x="623.832031" xlink:href="#DejaVuSans-65"/>
      <use x="685.355469" xlink:href="#DejaVuSans-6e"/>
      <use x="748.734375" xlink:href="#DejaVuSans-73"/>
      <use x="800.833984" xlink:href="#DejaVuSans-69"/>
      <use x="828.617188" xlink:href="#DejaVuSans-74"/>
      <use x="867.826172" xlink:href="#DejaVuSans-79"/>
     </g>
    </g>
   </g>
   <g id="line2d_16">
    <path clip-path="url(#p56e43ed2ab)" d="M 60.013977 273.312 
L 79.837728 230.591692 
L 90.237073 208.710074 
L 99.01152 190.747097 
L 106.811029 175.275481 
L 113.960578 161.581416 
L 120.460169 149.594483 
L 126.63478 138.659339 
L 132.484411 128.742419 
L 138.009063 119.80114 
L 143.208736 111.786067 
L 148.408408 104.17984 
L 153.283101 97.437452 
L 158.157794 91.086332 
L 162.707507 85.524108 
L 167.257221 80.325818 
L 171.481954 75.83352 
L 175.706688 71.671223 
L 179.606442 68.128027 
L 183.506197 64.876993 
L 187.405951 61.922749 
L 190.980726 59.479016 
L 194.555501 57.291132 
L 198.130275 55.361716 
L 201.70505 53.693077 
L 205.279825 52.28721 
L 208.52962 51.238597 
L 211.779415 50.409583 
L 215.029211 49.800987 
L 218.279006 49.413411 
L 221.528801 49.247239 
L 224.778596 49.302634 
L 228.028392 49.579542 
L 231.278187 50.07769 
L 234.527982 50.796584 
L 237.777777 51.735514 
L 241.027573 52.893551 
L 244.277368 54.269549 
L 247.852143 56.033264 
L 251.426917 58.056952 
L 255.001692 60.338191 
L 258.576467 62.874252 
L 262.476221 65.927914 
L 266.375976 69.276871 
L 270.27573 72.916353 
L 274.500464 77.180955 
L 278.725198 81.773306 
L 282.949931 86.685733 
L 287.499645 92.324564 
L 292.049358 98.314149 
L 296.924051 105.107591 
L 301.798744 112.275236 
L 306.998416 120.315199 
L 312.523068 129.281497 
L 318.3727 139.223226 
L 324.547311 150.182597 
L 331.046901 162.192763 
L 337.871471 175.275481 
L 345.346 190.09244 
L 353.795468 207.361909 
L 363.544854 227.828259 
L 375.894076 254.309394 
L 384.668523 273.312 
L 384.668523 273.312 
" style="fill:none;stroke:#ff7f0e;stroke-linecap:square;stroke-width:1.5;"/>
   </g>
   <g id="patch_203">
    <path d="M 43.78125 273.312 
L 43.78125 7.2 
" style="fill:none;stroke:#000000;stroke-linecap:square;stroke-linejoin:miter;stroke-width:0.8;"/>
   </g>
   <g id="patch_204">
    <path d="M 400.90125 273.312 
L 400.90125 7.2 
" style="fill:none;stroke:#000000;stroke-linecap:square;stroke-linejoin:miter;stroke-width:0.8;"/>
   </g>
   <g id="patch_205">
    <path d="M 43.78125 273.312 
L 400.90125 273.312 
" style="fill:none;stroke:#000000;stroke-linecap:square;stroke-linejoin:miter;stroke-width:0.8;"/>
   </g>
   <g id="patch_206">
    <path d="M 43.78125 7.2 
L 400.90125 7.2 
" style="fill:none;stroke:#000000;stroke-linecap:square;stroke-linejoin:miter;stroke-width:0.8;"/>
   </g>
  </g>
 </g>
 <defs>
  <clipPath id="p56e43ed2ab">
   <rect height="266.112" width="357.12" x="43.78125" y="7.2"/>
  </clipPath>
 </defs>
</svg>
